<?xml version="1.0" encoding="UTF-8"?>
<svg width="20px" height="15px" viewBox="0 0 20 15" version="1.1" xmlns="http://www.w3.org/2000/svg" xmlns:xlink="http://www.w3.org/1999/xlink">
    <title>flags/M/BQ-BO - Bonaire</title>
    <defs>
        <rect id="path-1" x="0" y="0" width="20" height="15"></rect>
    </defs>
    <g id="Symbols" stroke="none" stroke-width="1" fill="none" fill-rule="evenodd">
        <g id="flag">
            <mask id="mask-2" fill="white">
                <use xlink:href="#path-1"></use>
            </mask>
            <g id="mask"></g>
            <g id="contents" mask="url(#mask-2)">
                <polygon id="bg" fill="#FFFFFF" points="0 0 20 0 20 15 0 15"></polygon>
                <polygon id="Path-448" fill="#FEDA00" points="0 6.83333333 0 0 10 0"></polygon>
                <polygon id="Path-451" fill="#00268D" points="2.98427949e-13 15 20.0056264 15 20.0056264 0"></polygon>
                <path d="M6.00927714,4.06775271 C6.65980277,4.10962521 7.2424674,4.40049942 7.66327055,4.84582975 C8.07836179,5.28511527 8.33598279,5.87483125 8.34554845,6.52466033 L8.34554845,6.52466033 L8.69668354,6.76043388 L8.31575641,6.95167736 C8.22725292,7.51845859 7.94816202,8.02203239 7.54631685,8.39509801 C7.1444145,8.7682167 6.61959109,9.01082866 6.0392583,9.05513669 L6.0392583,9.05513669 L5.84583333,9.4415211 L5.65240836,9.05513669 C5.07207558,9.01082866 4.54725217,8.7682167 4.14534982,8.39509801 C3.74350465,8.02203239 3.46441375,7.51845859 3.37591026,6.95167736 L3.37591026,6.95167736 L3.0574204,6.79178035 L3.34721506,6.64643766 C3.32502554,5.96992222 3.57176373,5.35116093 3.98867103,4.88886241 C4.40655385,4.42548217 4.99535472,4.11912041 5.65585433,4.06960238 L5.65585433,4.06960238 Z" id="Combined-Shape" stroke="#000000" stroke-width="0.5" fill="#FFFFFF"></path>
                <polygon id="Path-450" fill="#F00A17" points="5.85987199 5.1875 5.45422769 5.86816289 4.65416667 5.86816289 5.05310879 6.58327233 4.65416667 7.26920531 5.45422769 7.26920531 5.85987199 7.96903912 6.27170292 7.26920531 7.0645653 7.26920531 6.67538049 6.58327233 7.0645653 5.86816289 6.27170292 5.86816289"></polygon>
            </g>
        </g>
    </g>
</svg>