<?xml version="1.0" encoding="UTF-8"?>
<svg width="20px" height="15px" viewBox="0 0 20 15" version="1.1" xmlns="http://www.w3.org/2000/svg" xmlns:xlink="http://www.w3.org/1999/xlink">
    <title>flags/M/BQ-SE - Sint Eustatius</title>
    <defs>
        <rect id="path-1" x="0" y="0" width="20" height="15"></rect>
        <polygon id="path-3" points="10 4.375 16.25 7.5 10 10.625 3.75 7.5"></polygon>
    </defs>
    <g id="Symbols" stroke="none" stroke-width="1" fill="none" fill-rule="evenodd">
        <g id="flag">
            <mask id="mask-2" fill="white">
                <use xlink:href="#path-1"></use>
            </mask>
            <g id="mask"></g>
            <g id="contents" mask="url(#mask-2)">
                <polygon id="bg" fill="#00268D" points="0 0 20 0 20 15 0 15"></polygon>
                <path d="M19.375,0.625 L19.375,14.375 L0.625,14.375 L0.625,0.625 L19.375,0.625 Z" id="bg" stroke="#E31D1C" stroke-width="1.25" fill="#00268D"></path>
                <rect id="Rectangle" fill="#E31D1C" fill-rule="nonzero" x="9.375" y="0" width="1.25" height="15"></rect>
                <rect id="Rectangle" fill="#E31D1C" fill-rule="nonzero" transform="translate(10.000000, 7.500000) rotate(-90.000000) translate(-10.000000, -7.500000) " x="9.375" y="-2.5" width="1.25" height="20"></rect>
                <mask id="mask-4" fill="white">
                    <use xlink:href="#path-3"></use>
                </mask>
                <path stroke="#E31D1C" stroke-width="1.25" d="M10,3.67622876 L17.6475425,7.5 L10,11.3237712 L2.35245751,7.5 L10,3.67622876 Z"></path>
                <path d="M7.25552064,10 C7.36760653,10 10.157433,10 15.625,10 L14.7400627,9.04288846 C13.5603497,7.78122218 12.9325379,7.1214782 12.8566273,7.0636565 C12.7427613,6.97692396 12.5546297,6.93949125 12.3405362,7.21515185 C12.1264428,7.49081244 12.0036745,7.0636565 11.8254376,7.0636565 C11.6472006,7.0636565 11.5718302,7.0636565 11.3132129,7.41733765 C11.1408013,7.65312508 10.7441653,8.19497535 10.1233047,9.04288846 L8.75470212,9.04288846 C8.60078506,8.90360527 8.47996832,8.85881224 8.39225187,8.90850937 C8.26067721,8.98305507 7.5195173,8.08393244 7.25552064,8.01675661 C6.99152399,7.94958078 6.81782392,8.26048399 6.81782392,8.50788496 C6.81782392,8.75528594 6.69360144,8.28117743 6.44101022,8.42034588 C6.27261607,8.51312486 6.21556383,8.67584602 6.2698535,8.90850937 C6.81487903,9.63616979 7.14343475,10 7.25552064,10 Z" id="Path-452" fill="#059334" fill-rule="nonzero" mask="url(#mask-4)"></path>
                <polygon id="Star" fill="#FEDA00" mask="url(#mask-4)" points="9.75317799 7.03415411 9.13563556 7.5 9.36224401 6.73048254 8.75 6.25943276 9.51275667 6.25943276 9.75317799 5.5 10.0080116 6.25943276 10.75 6.25943276 10.1430871 6.73048254 10.3737837 7.5"></polygon>
            </g>
        </g>
    </g>
</svg>