<?xml version="1.0" encoding="UTF-8"?>
<svg width="20px" height="15px" viewBox="0 0 20 15" version="1.1" xmlns="http://www.w3.org/2000/svg" xmlns:xlink="http://www.w3.org/1999/xlink">
    <title>flags/M/MQ-UNF - Martinique</title>
    <g id="Symbols" stroke="none" stroke-width="1" fill="none" fill-rule="evenodd">
        <g id="flag">
            <rect id="Rectangle" fill="#21428E" fill-rule="nonzero" x="0" y="0" width="20" height="15"></rect>
            <polygon id="Path" fill="#F7FCFF" points="8.75 0 11.25 0 11.25 6.25 20 6.25 20 8.75 11.25 8.75 11.25 15 8.75 15 8.75 8.75 0 8.75 0 6.25 8.75 6.25"></polygon>
            <path d="M1.59719,3.96254 C1.58067,3.95988 1.56489,3.95724 1.54999,3.95466 C1.56624,3.95466 1.58187,3.95742 1.59719,3.96254 C1.87437,4.00719 2.35983,4.05853 2.40601,3.95466 C2.46716,3.81708 2.69646,3.17506 3.52191,3.19035 C4.34736,3.20563 5.03524,3.03749 5.03524,2.50247 C5.03524,1.95814 4.79066,1.93688 4.30151,2.07446 C3.81235,2.21203 3.00801,2.11412 2.98689,1.7993 C2.97288,1.59032 2.04433,1.7101 2.05184,1.544 C2.05467,1.48119 2.89939,1.47279 3.00869,1.34616 C3.08931,1.14216 3.30936,1.02558 3.82763,1.035 C4.66837,1.05029 5.76898,1.32544 5.87598,2.07446 C5.99827,2.93048 5.99827,3.46551 5.03524,3.67951 C4.12487,3.8818 3.82763,3.83237 3.96521,3.95466 C4.25649,4.21358 5.87598,3.69478 6.47215,3.95466 C6.82274,4.10748 6.94602,5.08584 5.78427,5.10112 C4.62252,5.11641 3.79706,5.28456 3.2009,4.82597 C2.60474,4.36738 2.9563,4.55081 2.40601,4.45909 C1.90071,4.37488 1.76917,4.02001 1.59719,3.96254 Z" id="Path" fill="#FFFFFF" fill-rule="nonzero"></path>
            <path d="M1.59719,12.8098 C1.58067,12.8071 1.56489,12.8045 1.54999,12.8019 C1.56624,12.8019 1.58187,12.8047 1.59719,12.8098 C1.87437,12.8544 2.35983,12.9058 2.40601,12.8019 C2.46716,12.6643 2.69646,12.0223 3.52191,12.0376 C4.34736,12.0529 5.03524,11.8847 5.03524,11.3497 C5.03524,10.8054 4.79066,10.7841 4.30151,10.9217 C3.81235,11.0593 3.00801,10.9614 2.98689,10.6465 C2.97288,10.4376 2.04433,10.5573 2.05184,10.3912 C2.05467,10.3284 2.89939,10.32 3.00869,10.1934 C3.08931,9.98941 3.30936,9.87282 3.82763,9.88224 C4.66837,9.89753 5.76898,10.1727 5.87598,10.9217 C5.99827,11.7777 5.99827,12.3128 5.03524,12.5267 C4.12487,12.729 3.82763,12.6796 3.96521,12.8019 C4.25649,13.0608 5.87598,12.542 6.47215,12.8019 C6.82274,12.9547 6.94602,13.9331 5.78427,13.9484 C4.62252,13.9637 3.79706,14.1318 3.2009,13.6732 C2.60474,13.2146 2.9563,13.3981 2.40601,13.3063 C1.90071,13.2221 1.76917,12.8673 1.59719,12.8098 Z" id="Path" fill="#FFFFFF" fill-rule="nonzero"></path>
            <path d="M13.0624,3.96254 C13.0459,3.95988 13.0301,3.95724 13.0152,3.95466 C13.0314,3.95466 13.0471,3.95742 13.0624,3.96254 C13.3396,4.00719 13.825,4.05853 13.8712,3.95466 C13.9324,3.81708 14.1617,3.17506 14.9871,3.19035 C15.8126,3.20563 16.5005,3.03749 16.5005,2.50247 C16.5005,1.95814 16.2559,1.93688 15.7667,2.07446 C15.2776,2.21203 14.4732,2.11412 14.4521,1.7993 C14.4381,1.59032 13.5095,1.7101 13.517,1.544 C13.5199,1.48119 14.3646,1.47279 14.4739,1.34616 C14.5545,1.14216 14.7746,1.02558 15.2928,1.035 C16.1336,1.05029 17.2342,1.32544 17.3412,2.07446 C17.4635,2.93048 17.4635,3.46551 16.5005,3.67951 C15.5901,3.8818 15.2928,3.83237 15.4304,3.95466 C15.7217,4.21358 17.3412,3.69478 17.9374,3.95466 C18.2879,4.10748 18.4112,5.08584 17.2495,5.10112 C16.0877,5.11641 15.2623,5.28456 14.6661,4.82597 C14.0699,4.36738 14.4215,4.55081 13.8712,4.45909 C13.3659,4.37488 13.2344,4.02001 13.0624,3.96254 Z" id="Path" fill="#FFFFFF" fill-rule="nonzero"></path>
            <path d="M13.0624,12.8098 C13.0459,12.8071 13.0301,12.8045 13.0152,12.8019 C13.0314,12.8019 13.0471,12.8047 13.0624,12.8098 C13.3396,12.8544 13.825,12.9058 13.8712,12.8019 C13.9324,12.6643 14.1617,12.0223 14.9871,12.0376 C15.8126,12.0529 16.5005,11.8847 16.5005,11.3497 C16.5005,10.8054 16.2559,10.7841 15.7667,10.9217 C15.2776,11.0593 14.4732,10.9614 14.4521,10.6465 C14.4381,10.4376 13.5095,10.5573 13.517,10.3912 C13.5199,10.3284 14.3646,10.32 14.4739,10.1934 C14.5545,9.98941 14.7746,9.87282 15.2928,9.88224 C16.1336,9.89753 17.2342,10.1727 17.3412,10.9217 C17.4635,11.7777 17.4635,12.3128 16.5005,12.5267 C15.5901,12.729 15.2928,12.6796 15.4304,12.8019 C15.7217,13.0608 17.3412,12.542 17.9374,12.8019 C18.2879,12.9547 18.4112,13.9331 17.2495,13.9484 C16.0877,13.9637 15.2623,14.1318 14.6661,13.6732 C14.0699,13.2146 14.4215,13.3981 13.8712,13.3063 C13.3659,13.2221 13.2344,12.8673 13.0624,12.8098 Z" id="Path" fill="#FFFFFF" fill-rule="nonzero"></path>
        </g>
    </g>
</svg>