<?xml version="1.0" encoding="UTF-8"?>
<svg width="20px" height="15px" viewBox="0 0 20 15" version="1.1" xmlns="http://www.w3.org/2000/svg" xmlns:xlink="http://www.w3.org/1999/xlink">
    <title>flags/M/PM-UNF - St. Pierre &amp; Miquelon</title>
    <g id="Symbols" stroke="none" stroke-width="1" fill="none" fill-rule="evenodd">
        <g id="flag">
            <g id="shape" fill-rule="nonzero">
                <rect id="Rectangle" fill="#CC0000" x="4.22994972e-14" y="-1.02606812e-12" width="5" height="5"></rect>
                <polygon id="Path" fill="#08672F" points="5 0.650000024 5 -1.02606812e-12 4.3885038 -1.02606812e-12 4.22994972e-14 4.35000014 4.22994972e-14 5 0.611494363 5"></polygon>
                <polygon id="Path" fill="#08672F" points="4.22994972e-14 0.64999996 4.22994972e-14 -1.02606812e-12 0.611496137 -1.02606812e-12 5 4.34999971 4.99999965 5 4.37627433 4.99999936"></polygon>
                <polygon id="Path" fill="#FFFFFF" points="0 2.00534438 4.99937136 2 5 2.99465562 0.000628638822 3"></polygon>
                <polygon id="Path" fill="#FFFFFF" points="2 0.000625231809 2.99465801 0 3 4.99937477 2.00534199 5"></polygon>
            </g>
            <polygon id="bg-white" fill="#FFFFFF" fill-rule="nonzero" points="0 5 5 5 5 10 0 10"></polygon>
            <path d="M4.12255409,7.68779005 C4.08893942,7.71237801 4.05315332,7.7179172 4.02683985,7.70286042 C4.00638872,7.69095576 4.00420381,7.69811025 4.02100379,7.72187952 C4.02977014,7.73378419 4.04948896,7.74646602 4.0670222,7.75122496 C4.08383648,7.75598975 4.11305409,7.76707704 4.13205301,7.77500154 C4.17588637,7.79483071 4.21533614,7.79483071 4.24528687,7.77500154 C4.30593423,7.73535959 4.26793612,7.66399856 4.18683776,7.66399856 C4.16346915,7.66399856 4.14593578,7.67034197 4.12255355,7.68779005 L4.12255409,7.68779005 Z M4.29862009,7.77422115 C4.29496922,7.78293935 4.29131835,7.806719 4.29131835,7.82812356 C4.28985252,7.97004855 4.23798566,8.10404787 4.14008665,8.21980935 C4.11890281,8.24438269 4.10136944,8.26658241 4.10136944,8.2697642 C4.10136944,8.27768593 4.21095283,8.27531084 4.22556845,8.26657803 C4.23871851,8.25945292 4.24017044,8.26181324 4.24455388,8.28957422 C4.2504022,8.32764078 4.27013451,8.36410226 4.29423624,8.3815445 C4.30958456,8.39265255 4.31543342,8.39344902 4.33223381,8.38393435 C4.36145155,8.36886252 4.38045061,8.33636482 4.38410107,8.29513109 C4.38775195,8.26420879 4.39068223,8.25865484 4.40016889,8.26420879 C4.40675005,8.26738049 4.43963242,8.2713339 4.47323334,8.27292713 L4.5346002,8.27609854 L4.50245095,8.23487972 C4.4418172,8.15716974 4.42209919,8.12784067 4.39798384,8.07629405 C4.36438306,8.00572833 4.35050016,7.9502343 4.34465116,7.86619012 C4.34245236,7.82654802 4.33735064,7.7869046 4.33441913,7.77659332 C4.32711725,7.75518729 4.30885185,7.75359698 4.29861968,7.77421823 L4.29862009,7.77422115 Z M1.82299325,7.42281155 C1.8121212,7.43549792 1.79958714,7.4592878 1.79707101,7.47435802 C1.79373169,7.49020864 1.7836983,7.51796377 1.77534232,7.53620116 C1.75359805,7.58217892 1.75443679,7.62104049 1.77784299,7.65433495 C1.80710451,7.69636369 1.85644839,7.69556854 1.87985453,7.6535968 C1.90159874,7.61475 1.89574334,7.56003636 1.86648182,7.51881754 C1.84055956,7.48313629 1.83722025,7.45062368 1.85393218,7.41335228 C1.86480437,7.39194772 1.84557624,7.39750181 1.82299325,7.42286709 L1.82299325,7.42281155 Z M1.90559245,7.67416397 C1.89170965,7.68049247 1.8763611,7.69160636 1.87125854,7.69953086 C1.83034291,7.75741182 1.92312595,7.82083182 1.9903414,7.78198502 C2.06267341,7.73917428 2.06485792,7.73837927 2.09919181,7.75106272 C2.12842304,7.761374 2.12987511,7.761374 2.12403987,7.74868763 C2.11234201,7.72489629 2.09408928,7.71380301 2.02320961,7.68763965 C1.94212474,7.65829435 1.93919323,7.65829435 1.90559245,7.67415666 L1.90559245,7.67416397 Z M1.62651121,7.69318176 C1.59289662,7.71776972 1.55709714,7.7233089 1.53079717,7.70825213 C1.51034613,7.69636223 1.50814769,7.70350196 1.52496174,7.72728599 C1.53372837,7.73917574 1.55344661,7.75185773 1.57097995,7.75661652 C1.58778044,7.76138145 1.61701169,7.77246874 1.63601064,7.78040801 C1.67984397,7.80022241 1.71929397,7.80022241 1.74924446,7.78040801 C1.80987829,7.74076605 1.77189397,7.66940503 1.69079553,7.66940503 C1.66742681,7.66940503 1.6498799,7.67573367 1.62651121,7.69318176 L1.62651121,7.69318176 Z M1.80257729,7.77961286 C1.79892681,7.78833105 1.79527632,7.8121107 1.79527632,7.83353003 C1.79381064,7.97545502 1.74194353,8.10943957 1.64404461,8.2252012 C1.62286077,8.24978916 1.60531386,8.27198888 1.60531386,8.27515605 C1.60531386,8.28307763 1.71491072,8.28071731 1.72952635,8.27198449 C1.74267639,8.26484462 1.74412841,8.26721971 1.74851174,8.29496592 C1.75436065,8.33303248 1.7740925,8.36950873 1.79819402,8.38695097 C1.81354246,8.39804425 1.81937788,8.39884087 1.83619193,8.38932605 C1.86540962,8.37426898 1.88440868,8.34175667 1.88805929,8.30052279 C1.89171019,8.26960049 1.89462818,8.264048 1.90412717,8.26960049 C1.91070955,8.27277219 1.94357694,8.27674036 1.97719148,8.27831883 L2.03855834,8.28149024 L2.00640922,8.24027142 C1.94577534,8.16256291 1.92604371,8.13323238 1.90194212,8.08170052 C1.86832735,8.01113626 1.85444451,7.95562746 1.84860914,7.87158183 C1.8464107,7.83193972 1.84129455,7.7922963 1.83837683,7.78198502 C1.83107573,7.76057899 1.81280965,7.75898868 1.80257734,7.77960993 L1.80257729,7.77961286 Z M3.05810299,7.41961485 C3.04723123,7.43230122 3.03469665,7.4560911 3.03218091,7.47116133 C3.02884124,7.48701194 3.01880837,7.51476707 3.01043645,7.53300447 C2.98870789,7.57898237 2.98953119,7.61784394 3.01295297,7.65113826 C3.0422144,7.69316714 3.09154236,7.69237184 3.11496429,7.65040011 C3.13669301,7.61155184 3.13085319,7.55683805 3.10157617,7.51561908 C3.07565409,7.47993945 3.07231473,7.44742699 3.08904252,7.41015558 C3.09991428,7.38875102 3.08067169,7.39430482 3.05810361,7.4196704 L3.05810299,7.41961485 Z M3.14070104,7.67096727 C3.12681827,7.67729592 3.11146995,7.68840966 3.10635379,7.69633416 C3.06543806,7.75421498 3.15823441,7.81763513 3.22543665,7.77878832 C3.29776839,7.73597773 3.29996705,7.73518243 3.33430054,7.74786602 C3.36351842,7.7581773 3.36498384,7.7581773 3.35913498,7.74549094 C3.34745074,7.72169959 3.32918439,7.71060646 3.25831834,7.68444295 C3.17721998,7.65509751 3.17430223,7.65509751 3.14070104,7.67095997 L3.14070104,7.67096727 Z M2.86160666,7.68998506 C2.82800547,7.71457317 2.79220602,7.72011089 2.7659059,7.70505543 C2.74544142,7.69316553 2.74325651,7.70030526 2.76005636,7.72408944 C2.76882257,7.73597919 2.78855474,7.74866103 2.80608838,7.75341997 C2.82288877,7.75818461 2.85210638,7.76927059 2.8711053,7.77721131 C2.91493879,7.79702557 2.95438871,7.79702557 2.98435278,7.77721131 C3.0449868,7.73756936 3.0070023,7.66620848 2.92590381,7.66620848 C2.90252158,7.66620848 2.88498821,7.67253697 2.86160611,7.68998506 L2.86160666,7.68998506 Z M3.037686,7.77641631 C3.03403499,7.78513436 3.03037186,7.80891401 3.03037186,7.83033333 C3.02891966,7.97225847 2.97703905,8.10624287 2.87914003,8.2220045 C2.85795633,8.24659246 2.84042296,8.26879218 2.84042296,8.27195935 C2.84042296,8.27988093 2.95000635,8.27750585 2.96462183,8.2687878 C2.97777189,8.26164792 2.97923758,8.26403763 2.98362089,8.29176922 C2.98946907,8.32983564 3.00918803,8.36631203 3.03330297,8.38375427 C3.0486378,8.39484755 3.05448707,8.39564402 3.07128733,8.38612936 C3.10051869,8.37107243 3.11950413,8.33855982 3.12315473,8.29732624 C3.12681922,8.26640394 3.12973589,8.26084999 3.13923603,8.26640394 C3.14580343,8.2695755 3.17868608,8.27354367 3.21228672,8.27512199 L3.2736672,8.27829369 L3.24151822,8.23707487 C3.1808842,8.15936621 3.16115257,8.13003422 3.13703736,8.07850397 C3.10343645,8.0079381 3.08955354,7.95242945 3.08370468,7.86838644 C3.08151963,7.82874317 3.0764043,7.7890996 3.07348627,7.77878832 C3.06617213,7.7573823 3.04790578,7.75579199 3.03768682,7.77641324 L3.037686,7.77641631 Z M0.613097987,7.41741985 C0.602226045,7.43010621 0.589692235,7.4538961 0.587176154,7.46895156 C0.58383692,7.48481693 0.573803658,7.51257206 0.565432258,7.5307947 C0.543703894,7.57678722 0.544542587,7.61563417 0.567948338,7.64894325 C0.597209412,7.69095722 0.646552521,7.69017683 0.669958272,7.6482051 C0.691702163,7.60935684 0.685846851,7.55464465 0.656585777,7.51340961 C0.630663949,7.47772983 0.627309178,7.44523198 0.64403644,7.40796058 C0.654908382,7.38655601 0.635680576,7.39211011 0.613097987,7.41747539 L0.613097987,7.41741985 Z M0.69569784,7.66875751 C0.681815044,7.67510076 0.666466582,7.68619989 0.661350414,7.69413916 C0.620448367,7.75201997 0.713231142,7.81544012 0.780446756,7.77659332 C0.852764958,7.73378272 0.854963381,7.73298742 0.88929725,7.74567101 C0.918528504,7.7559823 0.919980559,7.7559823 0.914145168,7.74329593 C0.902447189,7.71950459 0.884181097,7.70839654 0.813314951,7.68223318 C0.732230105,7.65290265 0.729298851,7.65290265 0.69569784,7.6687502 L0.69569784,7.66875751 Z M4.28126309,5.54920952 C4.27761222,5.55792757 4.27394909,5.58170722 4.27394909,5.60311179 C4.27249688,5.74503692 4.2206164,5.87903609 4.12271752,5.99479772 C4.10153355,6.01937106 4.08400018,6.04157063 4.08400018,6.04475257 C4.08400018,6.05267429 4.19358344,6.05029921 4.20819905,6.04156625 C4.22134911,6.03444114 4.22281466,6.03681622 4.22719811,6.06456258 C4.23304642,6.10262914 4.25276525,6.13909063 4.27688046,6.15653287 C4.2922153,6.16764077 4.29806416,6.16843738 4.31486455,6.15892272 C4.34409578,6.14385235 4.36308162,6.1113545 4.36673209,6.07012092 C4.37039658,6.03919862 4.37331325,6.03364613 4.38281312,6.03919862 C4.38938066,6.04237032 4.42226344,6.04632373 4.45586381,6.04791681 L4.51724456,6.05108837 L4.48509558,6.00986955 C4.42444794,5.93216103 4.40472993,5.90282904 4.38061472,5.85128388 C4.34701367,5.78071948 4.3331309,5.72522413 4.3272819,5.64117981 C4.32509672,5.60153785 4.31998138,5.56189443 4.31706349,5.551583 C4.30974935,5.53017697 4.29148259,5.52858666 4.28126391,5.54920806 L4.28126309,5.54920952 Z M1.7852068,5.55460122 C1.78155631,5.56331927 1.77790583,5.58709907 1.77790583,5.60851986 C1.77644017,5.75044339 1.72457304,5.88442779 1.62667412,6.00018957 C1.60549026,6.02477753 1.58795696,6.0469771 1.58795696,6.05014442 C1.58795696,6.058066 1.69754024,6.05569091 1.71215589,6.04697271 C1.72530591,6.03983284 1.72677152,6.04222269 1.73115483,6.06995429 C1.73699026,6.10802085 1.75672201,6.14449695 1.78082355,6.16193919 C1.79617198,6.17303247 1.80202095,6.17382909 1.81882146,6.16431442 C1.84803914,6.14925881 1.86703809,6.11674474 1.87068862,6.07551116 C1.8743391,6.04458886 1.87727044,6.03903637 1.88676991,6.04458886 C1.89333743,6.04776056 1.92622008,6.05172873 1.95982086,6.05330706 L2.02118772,6.05647861 L1.98905222,6.01525833 C1.92840472,5.93754981 1.90868657,5.90821928 1.8845712,5.85668742 C1.8509704,5.78612302 1.83708758,5.73061291 1.83123862,5.64656844 C1.82905381,5.60692663 1.82393765,5.56728321 1.82100631,5.55697178 C1.8137052,5.53556575 1.79543912,5.53397544 1.78520682,5.55459684 L1.7852068,5.55460122 Z M3.02031565,5.55140453 C3.01666464,5.56012272 3.01301513,5.58390223 3.01301513,5.60532155 C3.01154931,5.74724669 2.95968245,5.88123124 2.86178357,5.99699272 C2.84059946,6.02157937 2.82306623,6.04378055 2.82306623,6.04694757 C2.82306623,6.05486915 2.93264962,6.05249421 2.9472651,6.04377616 C2.96041516,6.03663629 2.96186709,6.03902599 2.96625067,6.06675744 C2.97210021,6.104824 2.99183143,6.1413004 3.01593289,6.15874264 C3.03128148,6.16983592 3.03711672,6.17063239 3.05393087,6.16111758 C3.08314834,6.14606066 3.10214753,6.11354819 3.10579814,6.07231446 C3.10944901,6.04139216 3.11236568,6.03583821 3.12186568,6.04139216 C3.1284467,6.04456372 3.16131573,6.04853204 3.19493013,6.05011036 L3.25629672,6.05328191 L3.22414801,6.01206309 C3.16351412,5.93435312 3.1437825,5.90502405 3.11968077,5.85349219 C3.0860661,5.78292647 3.07218333,5.72741767 3.06634795,5.64337481 C3.06414928,5.60373139 3.05903381,5.56408797 3.05611592,5.55377669 C3.0488154,5.53237066 3.03054878,5.53078035 3.02031633,5.55140146 L3.02031565,5.55140453 Z M0.588665821,5.54920952 C0.585015309,5.55792757 0.581364796,5.58170722 0.581364796,5.60311179 C0.580632033,5.67407435 0.56186372,5.75486307 0.536472962,5.82056666 L0.534600203,6.06456697 C0.540449167,6.10263353 0.560180946,6.13909501 0.584282487,6.1565374 C0.599630933,6.16764515 0.605466328,6.16844192 0.622280406,6.1589271 C0.651498093,6.14385673 0.670497074,6.11135903 0.674147584,6.0701253 C0.677798076,6.039203 0.680729411,6.03365052 0.69021528,6.039203 C0.696797093,6.0423747 0.72966526,6.04632811 0.763279836,6.0479212 L0.824646494,6.0510929 L0.792497525,6.00987393 C0.73186371,5.93216542 0.712131931,5.90283343 0.688030408,5.85128827 C0.654415792,5.78072401 0.640546554,5.72522851 0.634697586,5.64118419 C0.632499136,5.60154223 0.627396562,5.56189881 0.624465289,5.55158738 C0.617164264,5.53018136 0.598898116,5.52859105 0.588665818,5.54921244 L0.588665821,5.54920952 Z M3.69672483,8.56734404 C3.68585322,8.58003026 3.67331878,8.60382014 3.67080273,8.6188756 C3.66746306,8.63474244 3.65743018,8.66248149 3.64907415,8.68071874 C3.62732982,8.72671141 3.62816841,8.76555968 3.65157492,8.7988673 C3.68083623,8.84088142 3.73018013,8.84008612 3.75358634,8.79812915 C3.77533051,8.75928234 3.76947494,8.70456855 3.74021379,8.66333497 C3.71429122,8.62765387 3.71095202,8.59515603 3.72766439,8.55788462 C3.73853616,8.53648006 3.71930758,8.54203401 3.6967253,8.56739929 L3.69672483,8.56734404 Z M3.77932422,8.81868155 C3.76544145,8.82502496 3.75010648,8.83612394 3.74499046,8.84406467 C3.70407459,8.9019294 3.79685746,8.96536417 3.86407332,8.92651736 C3.93640505,8.88370677 3.93858969,8.88291147 3.97292345,8.89559506 C4.00215482,8.90590634 4.00360675,8.90590634 3.99777151,8.89320536 C3.98607365,8.86942863 3.96782092,8.85832073 3.89694125,8.83215723 C3.81585651,8.8028267 3.81292514,8.8028267 3.77932422,8.81867424 L3.77932422,8.81868155 Z M3.50024292,8.8377141 C3.46662852,8.86228744 3.43082907,8.86784139 3.40452895,8.85278447 C3.38407782,8.84087996 3.38187942,8.8480343 3.39869303,8.87180372 C3.40745923,8.88370823 3.4271782,8.89639153 3.44471143,8.90114901 C3.46151182,8.9059138 3.49074305,8.91700109 3.50974197,8.92492559 C3.55357546,8.94475476 3.59302537,8.94475476 3.62297583,8.92492559 C3.68360971,8.88528378 3.64562535,8.81392276 3.56452699,8.81392276 C3.54115824,8.81392276 3.52361139,8.82026601 3.50024251,8.8377141 L3.50024292,8.8377141 Z M3.68960252,8.91864285 C3.6859526,8.92728036 3.68230268,8.95085464 3.68230268,8.9720629 C3.68083727,9.11267428 3.6289843,9.24543584 3.5311113,9.36012577 C3.50993332,9.38447167 3.49240471,9.40646617 3.49240471,9.40962019 C3.49240471,9.41746854 3.60195855,9.41511538 3.61657035,9.40646325 C3.62971687,9.39940406 3.63116867,9.40174246 3.63555075,9.42924691 C3.64139743,9.46696135 3.66112457,9.50308577 3.68521962,9.52036679 C3.70056386,9.53137208 3.7063976,9.53216124 3.72320752,9.52273442 C3.75241764,9.50780364 3.77141125,9.47560632 3.7750609,9.43475248 C3.77871082,9.40411754 3.78162667,9.3986149 3.79112422,9.40411754 C3.79770497,9.40725972 3.83056351,9.41117659 3.86416933,9.41275505 L3.92551958,9.41589738 L3.89337904,9.375045 C3.83276163,9.29806805 3.81303504,9.26900867 3.78893985,9.21793885 C3.75533444,9.14802694 3.74145522,9.0930461 3.73562147,9.00977881 C3.73342335,8.97050197 3.72830801,8.931225 3.72539216,8.92100902 C3.71809232,8.89980236 3.6998321,8.89822536 3.68960239,8.91864139 L3.68960252,8.91864285 Z M1.20068158,8.57273574 C1.18980972,8.58542196 1.17727583,8.60921185 1.17475975,8.62428207 C1.17142049,8.64013415 1.16138726,8.66788796 1.15301587,8.68612521 C1.13128749,8.73210312 1.13212618,8.77095138 1.15553193,8.804259 C1.18479299,8.84627312 1.23413612,8.84549258 1.25754187,8.80352085 C1.27928578,8.76467405 1.27343043,8.70996026 1.24416937,8.66874144 C1.21824756,8.6330618 1.21489277,8.60054773 1.23162007,8.56327779 C1.24249195,8.54187162 1.22326427,8.54742571 1.20068161,8.57279245 L1.20068158,8.57273574 Z M1.28328141,8.8240734 C1.26939858,8.83041666 1.25405015,8.8415304 1.248934,8.84945637 C1.20803196,8.90733733 1.30081476,8.97075587 1.36803035,8.93190906 C1.44034855,8.88909847 1.44254699,8.88830332 1.47688082,8.90098676 C1.50611208,8.91129805 1.50756415,8.91129805 1.50172875,8.89861182 C1.49003077,8.87482033 1.47176466,8.86372866 1.40089857,8.83754893 C1.31980015,8.8082184 1.31688242,8.8082184 1.28328141,8.82406595 L1.28328141,8.8240734 Z M1.00420024,8.8431058 C0.970585661,8.86769391 0.934786199,8.8732331 0.908486212,8.85817763 C0.888035154,8.84627312 0.885836704,8.8534127 0.902637284,8.87719542 C0.911403928,8.88909994 0.931135721,8.90178323 0.94866905,8.90654071 C0.965469576,8.9113055 0.994700803,8.92239279 1.0136862,8.93031729 C1.05753308,8.95014646 1.09698309,8.95014646 1.12693358,8.93031729 C1.18756742,8.89067548 1.14958306,8.81932922 1.06848461,8.81932922 C1.04510234,8.81932922 1.02756902,8.82565772 1.00420024,8.8431058 Z M1.19422582,8.92399932 C1.1905763,8.93263684 1.18692679,8.9561965 1.18692679,8.97740476 C1.18546151,9.1180176 1.13360822,9.2507777 1.03573542,9.36546763 C1.01454365,9.38982815 0.997015015,9.41182411 0.997015015,9.41496205 C0.997015015,9.4228104 1.10658262,9.42045724 1.12118079,9.41181972 C1.13432731,9.40474592 1.13579252,9.40709893 1.14017467,9.43458731 C1.14602203,9.47230175 1.16573505,9.50844079 1.18984369,9.5257218 C1.2051745,9.53671248 1.2110219,9.53750164 1.22781792,9.52807482 C1.25704138,9.51314404 1.2760217,9.48094671 1.27968482,9.44009287 C1.28333433,9.40945794 1.28625127,9.4039553 1.29574822,9.40945794 C1.30232829,9.41260012 1.33518769,9.41651698 1.36879329,9.41809545 L1.43014358,9.42123777 L1.3980032,9.38040001 C1.33738549,9.30340845 1.31765899,9.27434906 1.29356384,9.22327924 C1.25995824,9.15336733 1.24607915,9.09838649 1.2402453,9.0151192 C1.23804745,8.97584237 1.23293266,8.9365654 1.23001572,8.92634941 C1.22270308,8.90514276 1.20445534,8.90356575 1.19422579,8.9239964 L1.19422582,8.92399932 Z M2.43579238,8.5695389 C2.42492073,8.58222527 2.41237084,8.60601529 2.40986994,8.62108537 C2.40651472,8.63693613 2.39648195,8.66469112 2.38812616,8.68292851 C2.36638239,8.72890642 2.3672208,8.76775468 2.3906425,8.8010623 C2.41990349,8.84307642 2.46923126,8.84229603 2.49265264,8.80032415 C2.5143813,8.76147735 2.50852595,8.70676371 2.47926465,8.66554313 C2.45334267,8.6298635 2.45000335,8.59735103 2.46673113,8.56007963 C2.47760263,8.53867507 2.45836023,8.54422901 2.43579285,8.56959444 L2.43579238,8.5695389 Z M2.51837665,8.8208767 C2.50449388,8.82721996 2.48915904,8.83833385 2.48404303,8.84625836 C2.44312715,8.90413917 2.53590988,8.96755917 2.60312547,8.92871237 C2.67545762,8.88590178 2.67765574,8.88510662 2.7119895,8.89779007 C2.74120752,8.9081015 2.74267307,8.9081015 2.73682407,8.89541498 C2.72513984,8.87162364 2.70687349,8.8605305 2.63600743,8.83435238 C2.55490921,8.80502156 2.55199132,8.80502156 2.51837665,8.8208694 L2.51837665,8.8208767 Z M2.23929562,8.83990911 C2.20569457,8.86449721 2.16989525,8.8700364 2.14359513,8.85498094 C2.12313066,8.84307642 2.12094574,8.85021615 2.13774682,8.87399872 C2.14651302,8.88590324 2.16624533,8.89858522 2.1837787,8.90334402 C2.20057923,8.9081088 2.22979697,8.91919609 2.2487959,8.9271206 C2.29262912,8.94694976 2.33207889,8.94694976 2.36204323,8.9271206 C2.42267684,8.88747864 2.38467887,8.81613253 2.30359413,8.81613253 C2.28021176,8.81613253 2.26267853,8.82246102 2.2392963,8.83990911 L2.23929562,8.83990911 Z M2.4290051,8.92083215 C2.42534156,8.92946981 2.42169164,8.95302948 2.42169164,8.97423759 C2.42022622,9.11485043 2.36837326,9.24760907 2.27050025,9.36230046 C2.24932255,9.38666112 2.23179381,9.40865548 2.23179381,9.41179488 C2.23179381,9.41964323 2.34134751,9.41729021 2.35595944,9.40865255 C2.36910597,9.4015789 2.37057111,9.40394653 2.37495333,9.4314216 C2.38078775,9.46913618 2.40051352,9.50527522 2.42462233,9.52255624 C2.43995309,9.53354677 2.44580045,9.53433607 2.46259634,9.52490925 C2.49180632,9.50997833 2.51080021,9.47777954 2.51444985,9.43692717 C2.51809977,9.40629223 2.52103061,9.40078959 2.5305268,9.40629223 C2.53709257,9.40943455 2.56996622,9.41335142 2.60355829,9.41492989 L2.66490853,9.41807207 L2.63278175,9.37723284 C2.57215059,9.30024289 2.55243776,9.2711835 2.52832895,9.22011354 C2.49473702,9.15020177 2.48085765,9.09521932 2.47501029,9.01195364 C2.47282579,8.97267666 2.46771182,8.93339983 2.46478098,8.92318371 C2.45748114,8.90197705 2.43922051,8.90040005 2.42900469,8.92083069 L2.4290051,8.92083215 Z M3.69276157,6.31345894 C3.68188998,6.32614531 3.66935607,6.34993359 3.66683959,6.36499065 C3.66349998,6.38085589 3.65346727,6.4085964 3.64509594,6.42683379 C3.62336773,6.47282632 3.62420629,6.51167327 3.64761227,6.54498074 C3.67687308,6.58699632 3.72621631,6.58620117 3.74962228,6.54424259 C3.77136577,6.50538102 3.76551062,6.45068185 3.73624996,6.40944827 C3.71032829,6.37376863 3.7069734,6.34127079 3.72370092,6.30399953 C3.73457236,6.2825935 3.71534566,6.28813254 3.69276266,6.31351434 L3.69276157,6.31345894 Z M3.77536161,6.56479514 C3.76147884,6.5711384 3.74613038,6.58223738 3.74101409,6.59016349 C3.70011211,6.64804431 3.79289484,6.71147922 3.86011043,6.67263081 C3.93242882,6.62980691 3.93462708,6.62902521 3.9689607,6.64170997 C3.99819234,6.65200663 3.99964441,6.65200663 3.99380876,6.63932026 C3.9821109,6.61554368 3.96384469,6.60443564 3.89297877,6.57827213 C3.81189404,6.5489416 3.80896266,6.5489416 3.77536161,6.5647893 L3.77536161,6.56479514 Z M3.4962803,6.58382915 C3.46266577,6.60840089 3.42686646,6.61395498 3.40056647,6.59888461 C3.38011521,6.58699486 3.37791667,6.59411997 3.39471679,6.61791862 C3.403483,6.62980837 3.42321531,6.64250512 3.44074854,6.6472493 C3.45754893,6.65199918 3.48678043,6.66311453 3.5057656,6.67104064 C3.54961257,6.69086966 3.58906262,6.69086966 3.61901321,6.67104064 C3.67964696,6.63139722 3.6416626,6.56003781 3.56056424,6.56003781 C3.53718174,6.56003781 3.51964837,6.56638092 3.49627976,6.58382915 L3.4962803,6.58382915 Z M3.67234644,6.67024403 C3.66869556,6.67896222 3.66504469,6.7027581 3.66504469,6.72416252 C3.66357887,6.86608765 3.61171174,7.00008667 3.51381299,7.11584845 C3.49261567,7.14042018 3.4750823,7.16262136 3.4750823,7.16578853 C3.4750823,7.17372488 3.58467904,7.17133518 3.59928104,7.16261683 C3.6124311,7.15549187 3.61389692,7.15785219 3.61828023,7.18561317 C3.62412855,7.22366496 3.6438471,7.26013961 3.66796245,7.27758199 C3.68329729,7.28868989 3.68914615,7.28947189 3.70594667,7.27997184 C3.73517817,7.26490162 3.75417709,7.23238901 3.75782769,7.19117019 C3.76147857,7.16024789 3.76439523,7.15469379 3.7738951,7.16024789 C3.78047626,7.1634193 3.81334515,7.1673727 3.84695969,7.16896594 L3.90832655,7.17213764 L3.87617743,7.13090391 C3.81554368,7.05320884 3.79581178,7.02386325 3.77171033,6.97233169 C3.73809593,6.90176728 3.72421275,6.84627325 3.71837751,6.76221417 C3.71617884,6.72257221 3.71106351,6.68292893 3.70814548,6.67263081 C3.70084373,6.65122624 3.68257847,6.64963462 3.67234616,6.6702411 L3.67234644,6.67024403 Z M1.19672067,6.31885065 C1.18584847,6.33153701 1.17329901,6.35532529 1.17079841,6.37038236 C1.1674591,6.38624759 1.15742571,6.41400287 1.14905417,6.4322255 C1.12732548,6.47821802 1.12814863,6.51706497 1.15157027,6.55037259 C1.18083178,6.59238803 1.23016018,6.59159287 1.25358184,6.54963444 C1.27531056,6.51078764 1.26947067,6.45607385 1.24019353,6.41484012 C1.21427127,6.37916048 1.21093197,6.34666264 1.22765948,6.30939138 C1.23853152,6.28798535 1.21928794,6.29353915 1.19672051,6.31890619 L1.19672067,6.31885065 Z M1.27931875,6.57018684 C1.26543598,6.57654486 1.25008751,6.58762908 1.24497137,6.59556996 C1.20405574,6.65343601 1.29685211,6.71687077 1.36405417,6.67802251 C1.43638587,6.63521338 1.43858435,6.63441691 1.47291816,6.64710167 C1.50213586,6.6574131 1.5036015,6.6574131 1.49775253,6.64471197 C1.48606818,6.62093831 1.46780203,6.60983041 1.39693592,6.58366691 C1.3158375,6.55433623 1.31291979,6.55433623 1.27931875,6.57018684 L1.27931875,6.57018684 Z M1.00022403,6.58922085 C0.966623033,6.61379259 0.930823558,6.61934669 0.904523544,6.60429108 C0.884058961,6.59238656 0.881874062,6.59952644 0.898674629,6.62331033 C0.907441273,6.63521484 0.927173066,6.64789682 0.944706381,6.65265576 C0.961506894,6.65740564 0.990724556,6.66850623 1.00972355,6.67643235 C1.05355685,6.69626136 1.09300683,6.69626136 1.12297093,6.67643235 C1.18360477,6.63678892 1.14562041,6.56542951 1.06452197,6.56542951 C1.04113968,6.56542951 1.02360636,6.57177262 1.00022403,6.58922085 L1.00022403,6.58922085 Z M1.1763037,6.67563573 C1.17265321,6.68435393 1.1689891,6.7081498 1.1689891,6.72955422 C1.16753706,6.87147935 1.11565628,7.00547838 1.01775736,7.12124015 C0.996573538,7.14581189 0.979040196,7.16801307 0.979040196,7.171195 C0.979040196,7.17911658 1.08862349,7.1767415 1.10323911,7.16800854 C1.11638914,7.16088357 1.11785475,7.16324389 1.12223807,7.19100487 C1.128087,7.22907143 1.14780527,7.26553146 1.17192037,7.28297369 C1.18725523,7.29408174 1.1931042,7.29487821 1.2099047,7.28536354 C1.23913597,7.27029332 1.25812137,7.23779547 1.26177188,7.19656189 C1.26543598,7.16563959 1.2683537,7.16008549 1.27785316,7.16563959 C1.28442135,7.168811 1.31730312,7.17276441 1.35090415,7.17435764 L1.41228437,7.17752934 L1.3801354,7.13629561 C1.31948801,7.05860054 1.29976981,7.02926972 1.27565471,6.97772485 C1.24205367,6.90715899 1.22817087,6.85166495 1.2223219,6.76762063 C1.22013695,6.72797867 1.21502092,6.6883354 1.2121032,6.67802251 C1.20478862,6.65661794 1.18652244,6.65502632 1.17630373,6.67563281 L1.1763037,6.67563573 Z M2.43183038,6.31565395 C2.42095861,6.32834032 2.40840889,6.35212874 2.40590811,6.36718435 C2.40255301,6.38305104 2.39252013,6.41080471 2.38416394,6.42902895 C2.36241992,6.47502132 2.3632585,6.51386813 2.38666487,6.54717589 C2.41594193,6.58919133 2.4652701,6.58839632 2.48867632,6.54643774 C2.5104205,6.50759079 2.50456508,6.45287715 2.47530377,6.41164342 C2.44938134,6.37596379 2.44604214,6.34346594 2.46275452,6.30619468 C2.47362614,6.28478851 2.45439911,6.2903426 2.43183116,6.31570935 L2.43183038,6.31565395 Z M2.51441404,6.56699029 C2.50053113,6.57333341 2.48519643,6.58443253 2.48008014,6.59237326 C2.4391644,6.65023946 2.53194754,6.71367422 2.59916299,6.67482581 C2.67149487,6.63201668 2.67367965,6.63122021 2.70802689,6.64390497 C2.73724477,6.6542164 2.73871046,6.6542164 2.73286132,6.64151527 C2.72117709,6.61773869 2.70291101,6.60663065 2.63204455,6.58046729 C2.55094646,6.55113676 2.54802843,6.55113676 2.51441404,6.5669843 L2.51441404,6.56699029 Z M2.235333,6.5860243 C2.20171847,6.61059589 2.1659325,6.61614984 2.13961876,6.60109438 C2.11916777,6.58918987 2.11698313,6.59632974 2.13378284,6.62011217 C2.14254905,6.63201668 2.16226774,6.64470013 2.17980138,6.64945892 C2.19661512,6.65420909 2.22583286,6.66530954 2.24483178,6.6732358 C2.28866514,6.69306481 2.32811492,6.69306481 2.3580655,6.6732358 C2.41871287,6.63359223 2.38071489,6.56223281 2.29961667,6.56223281 C2.27624792,6.56223281 2.25871455,6.56857607 2.23533232,6.5860243 L2.235333,6.5860243 Z M2.411399,6.67244049 C2.40774813,6.68115884 2.40409726,6.7049531 2.40409726,6.72635752 C2.40263143,6.86828266 2.35076457,7.00228168 2.25286569,7.11804345 C2.23168186,7.14261519 2.21414862,7.16481637 2.21414862,7.1679983 C2.21414862,7.17591988 2.32373161,7.17354494 2.33834736,7.16481184 C2.35149742,7.15768702 2.35294949,7.1600472 2.35733293,7.18780817 C2.36318247,7.22587473 2.38291342,7.26233476 2.40701515,7.27977714 C2.42236347,7.2908849 2.42821233,7.29168166 2.44501272,7.28216685 C2.47423074,7.26709662 2.49322979,7.23459878 2.49688039,7.19336505 C2.50053127,7.16244275 2.50346155,7.1568888 2.5129478,7.16244275 C2.51952896,7.16561445 2.55241161,7.16956786 2.58601252,7.17116109 L2.64737925,7.17433264 L2.61523013,7.13311368 C2.55459638,7.0554037 2.5348781,7.02607317 2.51076289,6.97452655 C2.47716184,6.90396244 2.46327907,6.84846826 2.45743021,6.76442408 C2.45523141,6.72478198 2.45012969,6.6851387 2.44719818,6.67482581 C2.43989766,6.65342125 2.42163117,6.65182962 2.41139887,6.67243611 L2.411399,6.67244049 Z M0.590552145,7.77942123 C0.586901632,7.78813928 0.58325112,7.81191878 0.58325112,7.83333957 C0.582518358,7.90428738 0.563750043,7.9850761 0.538359288,8.05077822 L0.536500097,8.29477868 C0.542335493,8.33284509 0.562067271,8.36932134 0.586168814,8.38676373 C0.601517257,8.39785686 0.60736622,8.39865348 0.624166733,8.38913867 C0.653384419,8.37406844 0.67238342,8.34156928 0.676033911,8.3003354 C0.679684403,8.26941457 0.682615738,8.26386076 0.692115172,8.26941457 C0.698683366,8.27258627 0.731565138,8.27653968 0.765166177,8.27813291 L0.826532808,8.28130461 L0.794397444,8.2400855 C0.733750024,8.16237552 0.714031823,8.13304499 0.689916708,8.08151313 C0.656315687,8.01093426 0.642432878,7.95544007 0.636583909,7.8713959 C0.634399027,7.83175248 0.629282885,7.79210891 0.626351611,7.78179763 C0.619050587,7.76039307 0.600784437,7.7588013 0.590552141,7.77942269 L0.590552145,7.77942123 Z" id="Shape" fill="#000000" fill-rule="nonzero" transform="translate(2.534600, 7.534600) rotate(-1.000000) translate(-2.534600, -7.534600) "></path>
            <polygon id="bg-red" fill="#CC0000" fill-rule="nonzero" points="0 15 5 15 5 10 0 10"></polygon>
            <polygon id="bg-blue" fill="#0092C8" fill-rule="nonzero" points="5 0 20 0 20 15 5 15"></polygon>
            <g id="lions" transform="translate(1.024017, 10.886723)" fill="#FFCF00" fill-rule="nonzero" stroke="#650000" stroke-width="0.08">
                <path d="M0.644514559,0.459653254 C0.597068359,0.401470189 0.643954801,0.295355963 0.686496449,0.34061882 C0.664212728,0.297195688 0.700650344,0.262816701 0.717176548,0.284570398 C0.709486532,0.249222395 0.744431457,0.225797497 0.761570731,0.258421021 C0.755413387,0.219000345 0.807231034,0.195926539 0.820665239,0.239012623 C0.821571515,0.200266044 0.872216334,0.169678857 0.883398177,0.22641542 C0.89326059,0.182739501 0.949716236,0.177023714 0.954394218,0.239068798 C0.970867112,0.202976479 1.01319552,0.205616695 1.01566112,0.258055885 C1.0339599,0.233395141 1.08124616,0.270301995 1.0731963,0.313935783 C1.10239704,0.307265023 1.13808831,0.369576937 1.10249033,0.415513893 C1.16563643,0.380011409 1.18056332,0.495099562 1.14217988,0.547356184 C1.16203798,0.560121911 1.16378389,0.548844817 1.18129634,0.558422623 C1.19880878,0.568000429 1.23056842,0.583771508 1.25962255,0.590568661 C1.28589122,0.590568661 1.38220967,0.58738074 1.40190784,0.584178776 C1.42160601,0.580990855 1.44854106,0.570149115 1.48071384,0.558633278 C1.5144193,0.547131485 1.56314495,0.54669613 1.6076191,0.53532073 C1.64285723,0.53114975 2.63212382,0.552243393 2.66057821,0.549055472 C2.68904593,0.545867552 2.73057469,0.517035828 2.72838896,0.481912524 C2.72618991,0.446789221 2.69341738,0.421327986 2.66057821,0.418140065 C2.62775237,0.414952144 2.45919842,0.414952144 2.42854497,0.421327986 C2.39790486,0.427717871 2.35412374,0.443685562 2.33223985,0.466043139 C2.32171106,0.47317734 2.30433189,0.50021147 2.28959158,0.517976756 C2.27579753,0.530236909 2.23685433,0.532048547 2.23685433,0.516080856 C2.23685433,0.50563234 2.23358907,0.518075062 2.22401987,0.522133692 C2.21159856,0.530321171 2.1555694,0.532568164 2.15804833,0.522133692 C2.1624331,0.510308893 2.15775512,0.506587312 2.14302814,0.518931728 C2.13207286,0.528509534 2.05465293,0.532048547 2.0404324,0.522555003 C2.04896205,0.507542284 2.04902869,0.50839895 2.02575873,0.520743365 C2.01103174,0.527568605 1.95003139,0.532905213 1.94564662,0.519788394 C1.9450602,0.509452228 1.93815651,0.514522005 1.9295469,0.517457139 C1.86041672,0.536514445 1.85377958,0.514451786 1.86472153,0.50487398 C1.8756768,0.495296174 1.89224299,0.440497642 1.87473054,0.443685562 C1.8572181,0.446873483 1.74777198,0.46923106 1.71056136,0.475620945 C1.67335075,0.481996787 1.40409356,0.475620945 1.36688295,0.47241898 C1.32967233,0.46923106 1.28809027,0.432324206 1.28589122,0.379828841 C1.28199956,0.295608749 1.34718478,0.274444888 1.38658112,0.261679161 C1.42599078,0.24889939 1.52449496,0.229743778 1.5638913,0.229743778 C1.60330096,0.229743778 1.71567915,0.244433492 1.7463326,0.231667766 C1.77697271,0.218887995 1.87003923,0.183216987 1.89634788,0.180576771 C1.93514448,0.176770927 2.04628321,0.190618019 2.09924702,0.25773288 C2.07167225,0.270933962 2.05870451,0.27870013 2.08999768,0.266791069 C2.1184654,0.260401184 2.24061271,0.233577709 2.2690671,0.226555857 C2.36757128,0.222075916 2.34174242,0.238057651 2.29357653,0.250823378 C2.27750346,0.304807375 2.13275257,0.38016589 2.08678573,0.38975774 C2.0408189,0.399335546 1.94326098,0.392313694 1.92145705,0.38812867 C1.89955983,0.386387251 1.79599117,0.380938294 1.75827411,0.355196185 C1.69735372,0.311646659 1.58478895,0.283025591 1.5354369,0.284022694 C1.48927015,0.285005753 1.35756697,0.299583117 1.35812672,0.347893459 C1.35744702,0.432731473 1.48071384,0.437295677 1.53325118,0.434107756 C1.58578852,0.430905792 1.71713186,0.42452995 1.75434247,0.408562259 C1.79155309,0.392594568 1.87203837,0.388676375 1.91581948,0.388676375 C1.9596006,0.388676375 2.02358633,0.398984453 2.0432845,0.395782489 C2.06298267,0.392594568 2.10896283,0.391864295 2.13084673,0.375896604 C2.15273062,0.359928913 2.20033675,0.343244993 2.24848931,0.343244993 C2.29664187,0.343244993 2.65402104,0.328737847 2.7021736,0.331925767 C2.7718902,0.331420194 2.82113562,0.411708049 2.82197526,0.479988537 C2.82237509,0.511923919 2.80754148,0.559110764 2.79493359,0.56641349 C2.81656426,0.568520046 2.87068758,0.574952062 2.88854654,0.578870256 C2.92207874,0.585878064 2.97642863,0.624821255 2.98266594,0.66029565 C2.95719693,0.644004954 2.91609466,0.619386341 2.87904397,0.61668995 C2.87179377,0.616774212 2.09170361,0.615313667 2.03039672,0.615706891 C2.19708482,0.636477529 2.3244832,0.771760528 2.35630947,0.849211554 C2.38476386,0.897100584 2.45481364,0.877944972 2.48108231,0.871555087 C2.50735098,0.865179246 2.53800442,0.836431784 2.55988832,0.814088251 C2.58178554,0.791730675 2.61601077,0.786057018 2.63145744,0.791730675 C2.66548276,0.788542754 2.67153349,0.826853978 2.65839249,0.846023634 C2.64526482,0.865179246 2.66057821,0.857300728 2.69560311,0.857300728 C2.73061467,0.857300728 2.76149468,0.871049514 2.78215244,0.900049762 C2.76245427,0.919205374 2.75252522,0.90349047 2.78097961,0.906692434 C2.809434,0.909880355 2.84379251,0.964875499 2.822575,0.980393792 C2.804023,0.990083948 2.79849205,0.986516847 2.822575,0.989704768 C2.85846618,0.992906732 2.86824863,1.01739895 2.87291328,1.06093443 C2.84252639,1.0668047 2.85759989,1.05676345 2.87291328,1.07273114 C2.88824001,1.08869884 2.91056371,1.15939484 2.85540084,1.16213336 C2.83570267,1.15255556 2.83606251,1.15070179 2.8402607,1.1724274 C2.84415236,1.19478497 2.83351695,1.24834766 2.8028635,1.24834766 C2.76040182,1.2569705 2.72187177,1.23237997 2.71750033,1.20364655 C2.71311555,1.17491313 2.71368864,1.25910514 2.65350127,1.27239048 C2.59665912,1.28571796 2.56645881,1.25154963 2.56207404,1.23558193 C2.55770259,1.21961424 2.55988832,1.23237997 2.53800442,1.22919205 C2.5161072,1.22600413 2.48853243,1.22570921 2.47671086,1.18767886 C2.47671086,1.16533533 2.48097569,1.13587164 2.5199722,1.13189727 C2.53748465,1.1286953 2.54237587,1.10466653 2.5292482,1.10146456 C2.5161072,1.09827664 2.52704915,1.05037357 2.55551687,1.06315334 C2.58397126,1.07591907 2.64963627,1.07912103 2.66496299,1.09507468 C2.68028971,1.11104237 2.68466116,1.08230895 2.66057821,1.05676345 C2.6365086,1.03121796 2.48983853,0.980126962 2.45044219,0.999282574 C2.35869511,1.04800018 2.20526796,1.04079576 2.17899929,1.03440588 C2.15273062,1.02803004 2.07687001,1.04544423 2.04109877,0.929035967 C2.01208462,0.810170058 1.90181219,0.751425245 1.85147391,0.745035359 C1.60310105,0.720402703 1.61660189,0.739347659 1.77766575,0.747394702 C1.77646626,0.769583754 1.77062878,0.815015136 1.79673752,0.821671851 C1.84051863,0.81529601 1.93165265,0.794932639 1.95353655,0.814088251 C1.97543377,0.833243863 1.99731766,0.849211554 1.99294621,0.893912664 C1.98856144,0.938613773 1.99513194,0.925848046 1.97543377,0.945003658 C1.95572227,0.96415927 1.96447849,1.00248454 1.99513194,1.01525026 C2.02577205,1.02803004 2.03891305,1.04399773 2.05861122,1.06315334 C2.07830939,1.08230895 2.049855,1.12062017 2.03234255,1.10785445 C2.01483011,1.09507468 2.01483011,1.09507468 2.01264438,1.12062017 C2.01044533,1.14616567 1.98869471,1.19451814 1.95169734,1.19805716 C1.94392736,1.19496754 1.94608643,1.18175242 1.94696605,1.17171117 C1.9491651,1.14936764 1.93956924,1.19947557 1.92813417,1.21337884 C1.92084398,1.22276003 1.85887072,1.2411292 1.8413716,1.23155139 C1.84918156,1.21155316 1.84466351,1.21971255 1.82933679,1.22929036 C1.81438324,1.23558193 1.73371137,1.24739269 1.76965587,1.20683447 C1.7789985,1.1920605 1.75683473,1.22530194 1.74462667,1.23108795 C1.7343511,1.23782893 1.68647842,1.24197182 1.68647842,1.22280216 C1.67128497,1.236888 1.63511391,1.236888 1.62956963,1.22600413 C1.61862768,1.21322436 1.61758813,1.23558193 1.59788996,1.23876986 C1.57819179,1.24197182 1.5354369,1.23558193 1.53325118,1.21003644 C1.53106546,1.18449094 1.53762263,1.20045863 1.51355301,1.20364655 C1.45492497,1.24462608 1.42599078,1.18767886 1.42599078,1.16852325 C1.42599078,1.14936764 1.42380506,1.12701006 1.43036223,1.11424433 C1.43693273,1.10146456 1.38957982,1.09761659 1.40409356,1.07246431 C1.42041985,1.04172265 1.43755913,1.01916846 1.4697719,1.02482807 C1.48509862,1.02803004 1.48289957,1.01845223 1.4763424,1.00567246 C1.4697719,0.992906732 1.49385484,0.986516847 1.52230923,0.999282574 C1.55076363,1.01206234 1.5704618,1.04399773 1.57921802,1.07273114 C1.58797424,1.10146456 1.6558383,1.07912103 1.68429269,1.08230895 C1.71274708,1.08549687 1.71493281,1.03440588 1.69742036,1.01845223 C1.67990792,1.00248454 1.63175536,0.945003658 1.61205719,0.925848046 C1.59235902,0.906692434 1.60548669,0.839633748 1.62299913,0.823666057 C1.72494182,0.751046065 1.66896597,0.727873953 1.63175536,0.734263839 C1.59454474,0.74063968 1.49891932,0.780973197 1.46826588,0.816096501 C1.43762576,0.851219804 1.19952847,1.02336753 1.17763125,1.04253718 C1.15574736,1.06169279 1.12390776,1.06634126 1.11078009,1.04399773 C1.09763909,1.02164015 1.08888287,1.03760784 1.09106859,1.06952918 C1.10846109,1.19013651 1.00569209,1.22857413 0.987673196,1.22705741 C0.975131939,1.22568112 0.957166356,1.21833627 0.944225271,1.20697491 C0.931444118,1.27437064 0.874961817,1.28108353 0.823917169,1.27442682 C0.823144169,1.26646404 0.833446392,1.2516058 0.827822152,1.2572935 C0.81094943,1.28045157 0.759105128,1.27802201 0.714590997,1.27449704 C0.711632273,1.2604112 0.729944373,1.24333406 0.721188151,1.25291186 C0.706247929,1.28254408 0.680552347,1.27723556 0.638916974,1.27408977 C0.638437181,1.26784032 0.658215316,1.24695733 0.648992627,1.25945623 C0.630760492,1.28045157 0.59281686,1.27387911 0.563349572,1.27439873 C0.559857745,1.26969409 0.578583,1.23669139 0.561457055,1.25850126 C0.545090781,1.27712321 0.510425735,1.28022687 0.477293361,1.27522731 C0.471402569,1.25954049 0.484183722,1.25937197 0.487702204,1.24952733 C0.496458427,1.23355964 0.483330756,1.24952733 0.47238881,1.24952733 C0.461433536,1.24952733 0.446120141,1.25271525 0.439549642,1.23674756 C0.432979143,1.22079391 0.43675085,1.25271525 0.430393592,1.26142235 C0.424036334,1.26894977 0.416866094,1.28667293 0.394968873,1.29304877 C0.37308498,1.29943866 0.316162868,1.30582854 0.307406646,1.27709512 C0.295611734,1.26386595 0.2898942,1.23558193 0.298650423,1.21961424 C0.307406646,1.20364655 0.256975067,1.25041209 0.235171139,1.25473755 C0.17106546,1.26778415 0.162935633,1.16213336 0.191390025,1.15255556 C0.219857745,1.14297775 0.21547297,1.12701006 0.200146248,1.11424433 C0.184832854,1.10146456 0.176076631,1.05037357 0.195774801,1.03440588 C0.21547297,1.01845223 0.261066635,1.00959065 0.2898942,1.02803004 C0.306766921,1.04023401 0.342884675,1.08211234 0.335874365,1.05037357 C0.330996469,1.03076856 0.343471088,1.0058129 0.357451724,0.99509755 C0.369579826,0.983314882 0.406910389,0.980323573 0.416866094,1.00567246 C0.439936142,1.06443132 0.456262433,1.08973807 0.484716825,1.08869884 C0.545344005,1.07122847 0.627268665,1.05145493 0.65135161,1.05145493 C0.68224495,1.04371685 0.84581439,1.02680823 0.84581439,1.01084054 C0.747710043,1.0466239 0.70806048,1.00030776 0.697105206,1.00350973 C0.68616326,1.00669765 0.659214884,0.993131431 0.659214884,0.984227723 C0.659214884,0.965072111 0.683924225,0.967361235 0.648899334,0.973737076 C0.627921717,0.971925439 0.609249771,0.970900248 0.59160405,0.947840486 C0.588711964,0.936057819 0.614794046,0.895555777 0.624256631,0.861513839 C0.601653048,0.855067779 0.551674608,0.89795725 0.535295007,0.935762901 C0.523819957,0.921255755 0.51916863,0.934442793 0.478159654,0.945003658 C0.458808001,0.953893323 0.427328248,0.950705402 0.409815802,0.941127596 C0.392316684,0.931535746 0.323706281,0.876751258 0.356891965,0.869701318 C0.34814907,0.865193289 0.338113399,0.862609248 0.331502918,0.86068526 C0.307419973,0.849857565 0.284656459,0.828792009 0.291653441,0.823020047 C0.285562735,0.813428197 0.298637095,0.813456284 0.288987924,0.811532297 C0.275860254,0.808344376 0.243514207,0.78348702 0.251817292,0.773881127 C0.243527535,0.768109165 0.223842693,0.759205457 0.215499625,0.754725515 C0.200172903,0.745147709 0.184832854,0.711906262 0.182633803,0.695938571 C0.168519891,0.697371029 0.138386223,0.669213402 0.151993687,0.660815267 C0.128990276,0.642811239 0.109412055,0.613179024 0.124738777,0.603601218 C0.111304572,0.592450517 0.101935281,0.572087147 0.111277917,0.579712878 C0.0973239365,0.561708849 0.101642074,0.542665587 0.112597348,0.542665587 C0.123539295,0.542665587 0.119154519,0.491588636 0.09945635,0.491588636 C0.0797581806,0.491588636 0.0480785131,0.507696765 0.0250351201,0.491588636 C0.00608329539,0.476309086 -0.0099897711,0.408562259 0.00752267448,0.379828841 C0.0250351201,0.351081379 0.0600600112,0.319145997 0.0775724568,0.322347961 C0.0950849024,0.325535882 0.0863286796,0.331925767 0.0819439044,0.303192349 C0.0775724568,0.274444888 0.106666573,0.252859715 0.125725018,0.245711469 C0.148835049,0.234574812 0.193589077,0.242523549 0.206716747,0.255289275 C0.219857745,0.268069046 0.224229193,0.268069046 0.224229193,0.245711469 C0.224229193,0.230010609 0.241141897,0.221823129 0.25618874,0.217708324 C0.281244598,0.21147292 0.300849474,0.218972257 0.309605697,0.229743778 C0.323199833,0.250289717 0.33148959,0.274444888 0.313977144,0.293614543 C0.296464699,0.312770155 0.311658145,0.29652159 0.340125865,0.290145748 C0.358451293,0.283755863 0.391517029,0.291985474 0.397154597,0.312770155 C0.40475132,0.335113688 0.410295595,0.373438956 0.390597426,0.392594568 C0.370899256,0.41175018 0.342431537,0.459653254 0.357758258,0.475620945 C0.37308498,0.491588636 0.421237542,0.561835243 0.432179488,0.571413049 C0.443134763,0.580990855 0.456262433,0.603334388 0.473774878,0.600146467 C0.491287324,0.596958546 0.510985493,0.593756582 0.526312215,0.590568661 C0.587125982,0.577676541 0.614540822,0.570977694 0.536481162,0.573603867 C0.554006935,0.547510665 0.590711102,0.539814715 0.606637565,0.535222424 C0.592603619,0.512991241 0.644514559,0.466043139 0.644514559,0.459653254 L0.644514559,0.459653254 Z" id="Path"></path>
                <path d="M0.644514559,2.19965315 C0.597068359,2.14147008 0.643954801,2.03535586 0.686496449,2.08061872 C0.664212728,2.03719558 0.700650344,2.0028166 0.717176548,2.02457029 C0.709486532,1.98922229 0.744431457,1.96579739 0.761570731,1.99842092 C0.755413387,1.95900024 0.807231034,1.93592644 0.820665239,1.97901252 C0.821571515,1.94026594 0.872216334,1.90967875 0.883398177,1.96641532 C0.89326059,1.9227394 0.949716236,1.91702361 0.954394218,1.97906869 C0.970867112,1.94297637 1.01319552,1.94561659 1.01566112,1.99805578 C1.0339599,1.97339504 1.08124616,2.01030189 1.0731963,2.05393568 C1.10239704,2.04726492 1.13808831,2.10957683 1.10249033,2.15551379 C1.16563643,2.12001131 1.18056332,2.23509946 1.14217988,2.28735608 C1.16203798,2.30012181 1.16378389,2.28884471 1.18129634,2.29842252 C1.19880878,2.30800033 1.23056842,2.3237714 1.25962255,2.33056856 C1.28589122,2.33056856 1.38220967,2.32738064 1.40190784,2.32417867 C1.42160601,2.32099075 1.44854106,2.31014901 1.48071384,2.29863317 C1.5144193,2.28713138 1.56314495,2.28669603 1.6076191,2.27532063 C1.64285723,2.27114965 2.63212382,2.29224329 2.66057821,2.28905537 C2.68904593,2.28586745 2.73057469,2.25703572 2.72838896,2.22191242 C2.72618991,2.18678912 2.69341738,2.16132788 2.66057821,2.15813996 C2.62775237,2.15495204 2.45919842,2.15495204 2.42854497,2.16132788 C2.39790486,2.16771777 2.35412374,2.18368546 2.33223985,2.20604304 C2.32171106,2.21317724 2.30433189,2.24021137 2.28959158,2.25797665 C2.27579753,2.27023681 2.23685433,2.27204844 2.23685433,2.25608075 C2.23685433,2.24563224 2.23358907,2.25807496 2.22401987,2.26213359 C2.21159856,2.27032107 2.1555694,2.27256806 2.15804833,2.26213359 C2.1624331,2.25030879 2.15775512,2.24658721 2.14302814,2.25893162 C2.13207286,2.26850943 2.05465293,2.27204844 2.0404324,2.2625549 C2.04896205,2.24754218 2.04902869,2.24839885 2.02575873,2.26074326 C2.01103174,2.2675685 1.95003139,2.27290511 1.94564662,2.25978829 C1.9450602,2.24945212 1.93815651,2.2545219 1.9295469,2.25745703 C1.86041672,2.27651434 1.85377958,2.25445168 1.86472153,2.24487388 C1.8756768,2.23529607 1.89224299,2.18049754 1.87473054,2.18368546 C1.8572181,2.18687338 1.74777198,2.20923096 1.71056136,2.21562084 C1.67335075,2.22199668 1.40409356,2.21562084 1.36688295,2.21241888 C1.32967233,2.20923096 1.28809027,2.1723241 1.28589122,2.11982874 C1.28199956,2.03560865 1.34718478,2.01444478 1.38658112,2.00167906 C1.42599078,1.98889929 1.52449496,1.96974367 1.5638913,1.96974367 C1.60330096,1.96974367 1.71567915,1.98443339 1.7463326,1.97166766 C1.77697271,1.95888789 1.87003923,1.92321688 1.89634788,1.92057667 C1.93514448,1.91677082 2.04628321,1.93061792 2.09924702,1.99773278 C2.07167225,2.01093386 2.05870451,2.01870003 2.08999768,2.00679097 C2.1184654,2.00040108 2.24061271,1.97357761 2.2690671,1.96655575 C2.36757128,1.96207581 2.34174242,1.97805755 2.29357653,1.99082327 C2.27750346,2.04480727 2.13275257,2.12016579 2.08678573,2.12975764 C2.0408189,2.13933544 1.94326098,2.13231359 1.92145705,2.12812857 C1.89955983,2.12638715 1.79599117,2.12093819 1.75827411,2.09519608 C1.69735372,2.05164656 1.58478895,2.02302549 1.5354369,2.02402259 C1.48927015,2.02500565 1.35756697,2.03958301 1.35812672,2.08789335 C1.35744702,2.17273137 1.48071384,2.17729557 1.53325118,2.17410765 C1.58578852,2.17090569 1.71713186,2.16452985 1.75434247,2.14856216 C1.79155309,2.13259446 1.87203837,2.12867627 1.91581948,2.12867627 C1.9596006,2.12867627 2.02358633,2.13898435 2.0432845,2.13578238 C2.06298267,2.13259446 2.10896283,2.13186419 2.13084673,2.1158965 C2.15273062,2.09992881 2.20033675,2.08324489 2.24848931,2.08324489 C2.29664187,2.08324489 2.65402104,2.06873774 2.7021736,2.07192566 C2.7718902,2.07142009 2.82113562,2.15170795 2.82197526,2.21998843 C2.82237509,2.25192382 2.80754148,2.29911066 2.79493359,2.30641339 C2.81656426,2.30851994 2.87068758,2.31495196 2.88854654,2.31887015 C2.92207874,2.32587796 2.97642863,2.36482115 2.98266594,2.40029555 C2.95719693,2.38400485 2.91609466,2.35938624 2.87904397,2.35668985 C2.87179377,2.35677411 2.09170361,2.35531356 2.03039672,2.35570679 C2.19708482,2.37647742 2.3244832,2.51176042 2.35630947,2.58921145 C2.38476386,2.63710048 2.45481364,2.61794487 2.48108231,2.61155498 C2.50735098,2.60517914 2.53800442,2.57643168 2.55988832,2.55408815 C2.58178554,2.53173057 2.61601077,2.52605691 2.63145744,2.53173057 C2.66548276,2.52854265 2.67153349,2.56685387 2.65839249,2.58602353 C2.64526482,2.60517914 2.66057821,2.59730062 2.69560311,2.59730062 C2.73061467,2.59730062 2.76149468,2.61104941 2.78215244,2.64004966 C2.76245427,2.65920527 2.75252522,2.64349037 2.78097961,2.64669233 C2.809434,2.64988025 2.84379251,2.7048754 2.822575,2.72039369 C2.804023,2.73008384 2.79849205,2.72651674 2.822575,2.72970466 C2.85846618,2.73290663 2.86824863,2.75739885 2.87291328,2.80093433 C2.84252639,2.8068046 2.85759989,2.79676335 2.87291328,2.81273104 C2.88824001,2.82869873 2.91056371,2.89939474 2.85540084,2.90213326 C2.83570267,2.89255545 2.83606251,2.89070168 2.8402607,2.91242729 C2.84415236,2.93478487 2.83351695,2.98834756 2.8028635,2.98834756 C2.76040182,2.99697039 2.72187177,2.97237987 2.71750033,2.94364645 C2.71311555,2.91491303 2.71368864,2.99910503 2.65350127,3.01239038 C2.59665912,3.02571785 2.56645881,2.99154952 2.56207404,2.97558183 C2.55770259,2.95961414 2.55988832,2.97237987 2.53800442,2.96919195 C2.5161072,2.96600402 2.48853243,2.96570911 2.47671086,2.92767876 C2.47671086,2.90533522 2.48097569,2.87587153 2.5199722,2.87189717 C2.53748465,2.8686952 2.54237587,2.84466642 2.5292482,2.84146446 C2.5161072,2.83827654 2.52704915,2.79037346 2.55551687,2.80315323 C2.58397126,2.81591896 2.64963627,2.81912093 2.66496299,2.83507457 C2.68028971,2.85104227 2.68466116,2.82230885 2.66057821,2.79676335 C2.6365086,2.77121785 2.48983853,2.72012686 2.45044219,2.73928247 C2.35869511,2.78800008 2.20526796,2.78079566 2.17899929,2.77440577 C2.15273062,2.76802993 2.07687001,2.78544412 2.04109877,2.66903586 C2.01208462,2.55016995 1.90181219,2.49142514 1.85147391,2.48503526 C1.60310105,2.4604026 1.61660189,2.47934756 1.77766575,2.4873946 C1.77646626,2.50958365 1.77062878,2.55501503 1.79673752,2.56167175 C1.84051863,2.55529591 1.93165265,2.53493254 1.95353655,2.55408815 C1.97543377,2.57324376 1.99731766,2.58921145 1.99294621,2.63391256 C1.98856144,2.67861367 1.99513194,2.66584794 1.97543377,2.68500355 C1.95572227,2.70415917 1.96447849,2.74248443 1.99513194,2.75525016 C2.02577205,2.76802993 2.03891305,2.78399762 2.05861122,2.80315323 C2.07830939,2.82230885 2.049855,2.86062007 2.03234255,2.84785434 C2.01483011,2.83507457 2.01483011,2.83507457 2.01264438,2.86062007 C2.01044533,2.88616557 1.98869471,2.93451804 1.95169734,2.93805705 C1.94392736,2.93496744 1.94608643,2.92175231 1.94696605,2.91171107 C1.9491651,2.88936753 1.93956924,2.93947547 1.92813417,2.95337873 C1.92084398,2.96275993 1.85887072,2.98112909 1.8413716,2.97155129 C1.84918156,2.95155305 1.84466351,2.95971245 1.82933679,2.96929025 C1.81438324,2.97558183 1.73371137,2.98739259 1.76965587,2.94683437 C1.7789985,2.93206039 1.75683473,2.96530184 1.74462667,2.97108785 C1.7343511,2.97782882 1.68647842,2.98197172 1.68647842,2.96280206 C1.67128497,2.9768879 1.63511391,2.9768879 1.62956963,2.96600402 C1.61862768,2.95322425 1.61758813,2.97558183 1.59788996,2.97876975 C1.57819179,2.98197172 1.5354369,2.97558183 1.53325118,2.95003633 C1.53106546,2.92449084 1.53762263,2.94045853 1.51355301,2.94364645 C1.45492497,2.98462598 1.42599078,2.92767876 1.42599078,2.90852314 C1.42599078,2.88936753 1.42380506,2.86700996 1.43036223,2.85424423 C1.43693273,2.84146446 1.38957982,2.83761648 1.40409356,2.81246421 C1.42041985,2.78172254 1.43755913,2.75916835 1.4697719,2.76482797 C1.48509862,2.76802993 1.48289957,2.75845213 1.4763424,2.74567236 C1.4697719,2.73290663 1.49385484,2.72651674 1.52230923,2.73928247 C1.55076363,2.75206224 1.5704618,2.78399762 1.57921802,2.81273104 C1.58797424,2.84146446 1.6558383,2.81912093 1.68429269,2.82230885 C1.71274708,2.82549677 1.71493281,2.77440577 1.69742036,2.75845213 C1.67990792,2.74248443 1.63175536,2.68500355 1.61205719,2.66584794 C1.59235902,2.64669233 1.60548669,2.57963364 1.62299913,2.56366595 C1.72494182,2.49104596 1.66896597,2.46787385 1.63175536,2.47426373 C1.59454474,2.48063958 1.49891932,2.52097309 1.46826588,2.5560964 C1.43762576,2.5912197 1.19952847,2.76336742 1.17763125,2.78253708 C1.15574736,2.80169269 1.12390776,2.80634116 1.11078009,2.78399762 C1.09763909,2.76164005 1.08888287,2.77760774 1.09106859,2.80952908 C1.10846109,2.93013641 1.00569209,2.96857402 0.987673196,2.9670573 C0.975131939,2.96568102 0.957166356,2.95833616 0.944225271,2.94697481 C0.931444118,3.01437054 0.874961817,3.02108343 0.823917169,3.01442672 C0.823144169,3.00646394 0.833446392,2.9916057 0.827822152,2.9972934 C0.81094943,3.02045146 0.759105128,3.0180219 0.714590997,3.01449693 C0.711632273,3.0004111 0.729944373,2.98333396 0.721188151,2.99291176 C0.706247929,3.02254398 0.680552347,3.01723546 0.638916974,3.01408967 C0.638437181,3.00784022 0.658215316,2.98695723 0.648992627,2.99945613 C0.630760492,3.02045146 0.59281686,3.01387901 0.563349572,3.01439863 C0.559857745,3.00969399 0.578583,2.97669128 0.561457055,2.99850116 C0.545090781,3.01712311 0.510425735,3.02022677 0.477293361,3.01522721 C0.471402569,2.99954039 0.484183722,2.99937186 0.487702204,2.98952723 C0.496458427,2.97355954 0.483330756,2.98952723 0.47238881,2.98952723 C0.461433536,2.98952723 0.446120141,2.99271515 0.439549642,2.97674746 C0.432979143,2.96079381 0.43675085,2.99271515 0.430393592,3.00142225 C0.424036334,3.00894967 0.416866094,3.02667283 0.394968873,3.03304867 C0.37308498,3.03943855 0.316162868,3.04582844 0.307406646,3.01709502 C0.295611734,3.00386585 0.2898942,2.97558183 0.298650423,2.95961414 C0.307406646,2.94364645 0.256975067,2.99041198 0.235171139,2.99473744 C0.17106546,3.00778404 0.162935633,2.90213326 0.191390025,2.89255545 C0.219857745,2.88297765 0.21547297,2.86700996 0.200146248,2.85424423 C0.184832854,2.84146446 0.176076631,2.79037346 0.195774801,2.77440577 C0.21547297,2.75845213 0.261066635,2.74959055 0.2898942,2.76802993 C0.306766921,2.78023391 0.342884675,2.82211224 0.335874365,2.79037346 C0.330996469,2.77076845 0.343471088,2.74581279 0.357451724,2.73509745 C0.369579826,2.72331478 0.406910389,2.72032347 0.416866094,2.74567236 C0.439936142,2.80443121 0.456262433,2.82973797 0.484716825,2.82869873 C0.545344005,2.81122836 0.627268665,2.79145483 0.65135161,2.79145483 C0.68224495,2.78371675 0.84581439,2.76680813 0.84581439,2.75084044 C0.747710043,2.7866238 0.70806048,2.74030766 0.697105206,2.74350962 C0.68616326,2.74669755 0.659214884,2.73313133 0.659214884,2.72422762 C0.659214884,2.70507201 0.683924225,2.70736113 0.648899334,2.71373697 C0.627921717,2.71192533 0.609249771,2.71090014 0.59160405,2.68784038 C0.588711964,2.67605772 0.614794046,2.63555567 0.624256631,2.60151374 C0.601653048,2.59506768 0.551674608,2.63795715 0.535295007,2.6757628 C0.523819957,2.66125565 0.51916863,2.67444269 0.478159654,2.68500355 C0.458808001,2.69389322 0.427328248,2.6907053 0.409815802,2.68112749 C0.392316684,2.67153564 0.323706281,2.61675115 0.356891965,2.60970121 C0.34814907,2.60519319 0.338113399,2.60260914 0.331502918,2.60068516 C0.307419973,2.58985746 0.284656459,2.56879191 0.291653441,2.56301994 C0.285562735,2.55342809 0.298637095,2.55345618 0.288987924,2.55153219 C0.275860254,2.54834427 0.243514207,2.52348692 0.251817292,2.51388102 C0.243527535,2.50810906 0.223842693,2.49920535 0.215499625,2.49472541 C0.200172903,2.48514761 0.184832854,2.45190616 0.182633803,2.43593847 C0.168519891,2.43737092 0.138386223,2.4092133 0.151993687,2.40081516 C0.128990276,2.38281114 0.109412055,2.35317892 0.124738777,2.34360111 C0.111304572,2.33245041 0.101935281,2.31208704 0.111277917,2.31971277 C0.0973239365,2.30170875 0.101642074,2.28266548 0.112597348,2.28266548 C0.123539295,2.28266548 0.119154519,2.23158853 0.09945635,2.23158853 C0.0797581806,2.23158853 0.0480785131,2.24769666 0.0250351201,2.23158853 C0.00608329539,2.21630898 -0.0099897711,2.14856216 0.00752267448,2.11982874 C0.0250351201,2.09108128 0.0600600112,2.05914589 0.0775724568,2.06234786 C0.0950849024,2.06553578 0.0863286796,2.07192566 0.0819439044,2.04319225 C0.0775724568,2.01444478 0.106666573,1.99285961 0.125725018,1.98571137 C0.148835049,1.97457471 0.193589077,1.98252344 0.206716747,1.99528917 C0.219857745,2.00806894 0.224229193,2.00806894 0.224229193,1.98571137 C0.224229193,1.9700105 0.241141897,1.96182303 0.25618874,1.95770822 C0.281244598,1.95147282 0.300849474,1.95897215 0.309605697,1.96974367 C0.323199833,1.99028961 0.33148959,2.01444478 0.313977144,2.03361444 C0.296464699,2.05277005 0.311658145,2.03652149 0.340125865,2.03014564 C0.358451293,2.02375576 0.391517029,2.03198537 0.397154597,2.05277005 C0.40475132,2.07511358 0.410295595,2.11343885 0.390597426,2.13259446 C0.370899256,2.15175008 0.342431537,2.19965315 0.357758258,2.21562084 C0.37308498,2.23158853 0.421237542,2.30183514 0.432179488,2.31141295 C0.443134763,2.32099075 0.456262433,2.34333428 0.473774878,2.34014636 C0.491287324,2.33695844 0.510985493,2.33375648 0.526312215,2.33056856 C0.587125982,2.31767644 0.614540822,2.31097759 0.536481162,2.31360376 C0.554006935,2.28751056 0.590711102,2.27981461 0.606637565,2.27522232 C0.592603619,2.25299114 0.644514559,2.20604304 0.644514559,2.19965315 L0.644514559,2.19965315 Z" id="Path"></path>
            </g>
            <path d="M13.0857272,1.89403692 C12.8852606,1.85967391 12.5106756,1.87816222 12.278541,1.93631906 C11.964622,2.01562153 11.8142719,2.01034333 11.4502365,1.89931695 C11.4221035,1.89050779 11.4994817,2.04382845 11.682371,2.35927891 C11.566304,2.39100463 11.3816533,2.46501067 11.5056373,2.50730921 C11.6850041,2.56810145 11.8749388,2.56018418 12.2627071,2.46764977 C12.5370593,2.40421837 12.6531264,2.3883473 12.8245762,2.39628283 C12.9432946,2.39892559 13.0488118,2.41479301 13.0593617,2.42536764 C13.0725441,2.43593862 13.0092269,2.50994824 12.9248276,2.58925067 C12.795559,2.7055571 12.7480754,2.73200278 12.6715934,2.73464181 C12.6188258,2.73464181 12.5370593,2.7425702 12.4922084,2.7504984 C12.4130751,2.76637303 12.4104423,2.77164762 12.4104423,2.91967797 L12.4104423,3.07300461 L11.7984383,3.64927307 C11.4607866,3.96648482 11.1442527,4.24669258 11.096769,4.27575907 C11.0492853,4.30484579 10.993885,4.51896485 11.0492853,4.54011407 C11.0835679,4.5533278 11.0624677,4.59826728 10.9437679,4.76215039 C10.7723002,5.00005952 10.640399,5.253838 10.5375328,5.53668497 L10.4636652,5.73493285 L10.4214657,5.58954171 C10.3528822,5.35693069 10.3001144,5.01856972 10.3001144,4.79651517 C10.3001144,4.59297082 10.3001144,4.59297082 10.4372817,4.39736196 C10.6034836,4.15945447 10.9938849,3.75236576 11.2101852,3.58848265 C11.2972356,3.52239377 11.4449705,3.43251499 11.5399199,3.38757733 C11.7509548,3.28976287 11.8037222,3.24482521 11.8037222,3.17081906 C11.8037222,3.08357931 11.7404047,3.04128086 11.6401714,3.06243009 C11.5821379,3.07300096 11.3473704,3.03600262 10.9464011,2.95404275 C10.6140333,2.88797227 10.3370484,2.82980083 10.3344154,2.82980083 C10.3344154,2.82715816 10.3607993,2.71349441 10.3977149,2.57603876 C10.4399326,2.41479483 10.484765,2.30112752 10.5269831,2.25618988 C10.5797388,2.1997894 10.4267372,2.20507368 10.0679784,2.27204273 C9.97301131,2.28261372 9.74616084,2.33019593 9.56677604,2.38043 C9.20275864,2.48088355 8.91785648,2.49673633 8.73057283,2.43064766 C8.67253919,2.4094984 8.62242227,2.39100645 8.61977139,2.39100645 C8.61450537,2.39100645 8.61187327,2.42007303 8.61187327,2.45709337 C8.61187327,2.57076053 8.67780576,2.81394261 8.56965557,2.80601422 C8.4615052,2.79808602 8.37445483,2.79808602 8.37445483,2.80601422 C8.37445483,2.86152658 8.50370503,3.00955694 8.58812238,3.05185721 C8.77277303,3.14703081 9.15790866,3.11264945 9.58524376,2.96198007 C9.79891113,2.8879741 10.0758964,2.86682305 10.0574292,2.92497626 C10.0468789,2.95670201 9.67494518,3.23689154 9.03657536,3.69421437 C8.71473957,3.92418619 8.66462302,3.98763586 8.71473957,4.09866405 C8.74112347,4.15945629 8.7332062,4.18324472 8.6540731,4.31542213 C8.48260539,4.60618637 8.32170527,5.10580965 8.32170527,5.35957172 C8.32170527,5.48645084 8.31378891,5.49702737 8.13968745,5.68207793 C7.78356873,6.05744107 6.92278005,7.49010253 7.16019848,7.61170524 C7.29755368,7.70119306 7.40057009,7.76830893 7.46924769,7.81305284 C7.47813369,7.81884214 7.46947919,7.85132113 7.44328417,7.91048983 C7.31666717,8.04794548 7.29028327,8.1563144 7.35623381,8.24883257 C7.38788355,8.29113102 7.42745037,8.29906651 7.5751672,8.29906651 C7.73345236,8.29906651 7.78620156,8.31228024 7.96821955,8.40215921 C8.14760435,8.49203635 8.21618809,8.54755035 8.47997219,8.82246182 C9.29507576,9.67629884 9.49556039,9.85339568 9.98356196,10.1547545 C10.2658309,10.3292123 10.7802164,10.5829926 11.0334506,10.6755088 C11.8564712,10.9715695 12.7639089,11.0270833 13.6212298,10.8341138 C14.0169153,10.7442367 14.3070835,10.641144 14.6869349,10.4508152 C14.8979694,10.3424443 15.0008536,10.3054239 15.0061194,10.3265733 C15.0140358,10.3450835 15.0377694,10.4217467 15.0615201,10.4957528 C15.1063527,10.641144 15.2382538,10.8632004 15.2936544,10.8843314 C15.3121214,10.8896351 15.7341724,10.8314746 16.2353752,10.7548114 C16.7365775,10.678148 17.1533627,10.6147165 17.1639128,10.6120593 C17.2140296,10.6094164 17.2747143,10.321295 17.2747143,10.0966013 C17.2747143,9.86660941 17.26943,9.85075665 17.1586468,9.63399838 C17.0161958,9.35908709 16.7998956,9.1317543 16.5914937,9.03658088 L16.4437771,8.96785297 L16.5070762,8.88591132 C16.7998956,8.49731458 17.1454458,7.93955632 17.2799801,7.64085659 L17.3564804,7.44040696 L17.4936471,7.43774606 C17.5675147,7.43774606 17.6360985,7.427175 17.6440154,7.4139558 C17.6519317,7.40338474 17.6413814,7.32098394 17.6202648,7.1994011 C17.5991645,7.07779839 17.5806976,6.97470752 17.5806976,6.96940924 C17.5806976,6.96676656 17.6281812,6.96412371 17.686215,6.96412371 L17.7917324,6.96412371 L17.7917324,6.36406699 L18.2480842,5.49437722 C18.4960525,5.01592158 18.443303,4.40263108 18.4670358,4.46080252 C18.4749522,4.48193352 18.4538534,4.54010496 18.424836,4.5929617 C18.3773524,4.67492139 18.3562526,4.68547787 18.2982188,4.67492139 C18.2586522,4.66699319 17.9579164,4.61675014 17.6281812,4.56125418 L17.03203,4.46080252 L16.7392105,4.98947406 C16.578311,5.28025634 16.4490425,5.52080468 16.4516938,5.52610115 C16.4569598,5.52874401 16.7629614,5.55252861 17.1322629,5.57631887 C17.5015644,5.6001073 17.8101988,5.62655299 17.8154831,5.63183123 C17.8207491,5.6344739 17.7310657,5.80101244 17.6176316,5.99927874 L17.4118812,6.3561315 L16.805162,6.3561315 C16.2775936,6.3561315 16.1984421,6.36143526 16.1694254,6.39842995 C16.1430593,6.43543394 16.1298585,6.39578728 16.079742,6.16845832 C15.9979755,5.78515969 15.918824,5.28025634 15.918824,5.14808076 C15.918824,5.0185606 16.0348913,4.75156657 16.2459256,4.3920746 C16.5598445,3.85808655 17.0082795,3.33998952 17.1876646,3.30562475 C17.3406653,3.27654003 17.4488157,3.19459838 17.4488157,3.10736045 C17.4488157,3.01748149 17.4065978,2.97518286 17.3010806,2.96196913 C17.2298641,2.95404093 16.2986932,2.58660435 16.2564757,2.54960219 C16.2301101,2.52845296 16.0612748,1.9653984 16.1113917,2.01827157 C16.1462271,2.05994859 16.1106262,2.05071538 15.9715916,2.02884255 C15.7051561,1.99711864 15.4519223,2.01033239 15.2145219,2.07112469 C14.9507197,2.13985251 14.7449689,2.14250984 14.5128345,2.07642841 C14.4126014,2.05000093 14.3361008,2.0394263 14.3361008,2.05264004 C14.3361008,2.11343232 14.4495172,2.27733369 14.5286689,2.33019046 C14.5761522,2.36191437 14.8109198,2.69499697 15.1485713,2.61039807 C15.3411391,2.56281956 15.5073227,2.54167034 15.6735069,2.53903113 C15.8819082,2.53638846 15.9821415,2.55488772 15.9425749,2.58396879 C15.5890894,2.86415832 14.3730346,3.78672325 14.2358493,3.87924124 C14.0248329,4.02199335 13.993165,4.06429198 13.993165,4.1885339 C13.993165,4.25726163 13.9193158,4.70928818 13.8691808,4.82029813 L13.7768646,5.02120346 C14.0125096,4.02551218 14.1778159,3.4836074 14.2727834,3.39548913 C14.3334499,3.33999317 14.3914832,3.2791827 14.4020513,3.26332994 C14.4231513,3.22632596 14.344018,3.13115235 14.2912501,3.13115235 C14.2516832,3.13115235 13.3073118,2.47558165 13.3073118,2.44915237 C13.3073118,2.3751281 13.449763,1.99448683 13.4919626,1.95482557 C13.5209792,1.92839811 13.1912451,1.91518801 13.0857272,1.89403692 Z M14.2290464,3.2263296 C14.2237804,3.22102603 13.1965286,2.76900677 13.2308115,2.65533938 L13.2624793,2.54960948 C13.9156459,3.00956538 14.2378349,3.23513875 14.2290464,3.2263296 Z M10.8013171,3.01484957 C11.3552694,3.12851697 11.365819,3.131156 11.2629532,3.1602409 C11.2207351,3.17345463 10.9543182,3.24746242 10.6746999,3.32676486 L10.1629477,3.46951697 L10.1814143,3.39815003 C10.2394478,3.15494443 10.3080313,2.91967615 10.3212144,2.91967615 C10.3317829,2.91967615 10.5454497,2.96197642 10.8013171,3.01484957 Z M9.93081312,3.35848878 L9.87806337,3.54881959 L9.67229486,3.60433359 C9.56151165,3.63340026 9.38741074,3.68363602 9.28715922,3.71272092 C9.18692575,3.73915021 9.11305849,3.75764218 9.11834275,3.74972473 C9.13944221,3.73121472 9.99413083,3.10472853 10.0020295,3.10472853 C10.0046798,3.10472853 10.0046798,3.12058512 9.99676347,3.13645246 C9.99147922,3.15494443 9.96246268,3.25539791 9.93081312,3.35848878 Z M13.7320141,5.14016896 L13.6660633,5.35692887 C13.5869299,5.62656028 13.5315477,5.89353608 13.4893296,6.22132217 C13.4629459,6.4328022 13.4418461,6.49359444 13.3521625,6.64162479 C13.2967619,6.73679821 13.2360954,6.8478264 13.2229123,6.8901068 C13.1527595,7.05201602 13.1453322,6.93684336 13.1332111,6.56761864 C13.1147439,6.17110464 13.1490456,5.76929417 13.2308115,5.391292 C13.286212,5.14016896 13.6264965,4.92341088 13.6634305,5.0000577 L13.7320141,5.14016896 Z M10.3660649,5.69529166 C10.4188327,5.85125933 10.4267318,5.90675346 10.4056316,5.99663242 C10.3924492,6.05480186 10.368698,6.23453955 10.3528822,6.39050539 C10.3027655,6.89540691 10.6140333,7.80208262 10.830334,8.24883257 C10.8962846,8.3783509 10.231531,7.66992326 10.104914,7.36592707 C10.0257804,7.1782537 10.0204965,7.14916898 10.0758971,7.14916898 C10.1101977,7.14916898 10.1154638,7.0936548 10.1154638,6.8187435 L10.1154638,6.48831985 L10.0363303,6.48831985 C9.96774693,6.48831985 9.954564,6.47510612 9.92552905,6.37465263 C9.90442904,6.30856375 9.89124611,6.12087252 9.89124611,5.90675346 C9.89124611,5.51553757 9.92818029,5.35163422 10.0969966,4.97363206 C10.196295,4.72200611 10.2235354,4.73933168 10.2183479,5.00271878 C10.22098,5.15602719 10.2869315,5.46002338 10.3660649,5.69529166 Z M16.0612748,6.47774332 C16.0955758,6.61255994 16.0955758,6.6363502 16.0480924,6.77380585 C16.0190761,6.85574749 15.9636754,7.04871714 15.8950917,7.12537873 C15.7711074,7.2628362 15.7684749,7.26549345 15.736825,7.20732219 C15.6102078,6.96677385 15.5627242,6.35614244 15.6418575,5.94111824 C15.6761403,5.75872311 15.8106742,5.27233179 15.826508,5.27233179 C15.831774,5.27233179 15.847608,5.37014624 15.8660748,5.48910828 C15.9003752,5.73229565 16.0032414,6.25568877 16.0612748,6.47774332 Z M8.47997219,6.22132217 L8.30850502,5.63714756 L8.23992111,5.68207793 C8.24344394,5.71556722 8.32346097,5.89531531 8.47997219,6.22132217 Z M9.85167947,6.46452959 C9.85167947,6.47774332 9.74352946,6.48831985 9.61162821,6.48831985 L9.37157657,6.48831985 L8.71473957,6.49824635 C8.72528985,6.45860516 9.75725037,6.08231191 9.7783502,6.00566673 L9.48501175,6.06536016 L8.71473957,6.22132217 C8.76750718,6.26096336 9.71186204,6.26098524 9.76199701,6.32441669 C9.81211283,6.39050539 9.85167947,6.45395507 9.85167947,6.46452959 Z M8.58549028,6.87953574 L8.756958,7.14916898 L8.76222402,7.38179805 C8.76485612,7.50867918 8.79124039,7.70694529 8.82025748,7.82061269 C8.87302509,8.04528804 8.86247536,8.15367537 8.77805746,8.15367537 C8.75430676,8.15367537 8.61450665,8.08230843 8.46678981,7.9950705 C8.32170581,7.90783239 8.16605385,7.82589093 8.121221,7.81003616 L8.04208772,7.78095145 L8.23992111,7.05665263 C8.34807166,6.65749942 8.43557353,6.30187668 8.44349025,6.30187668 C8.45404053,6.30187668 8.49580672,6.39314442 8.52745628,6.46980783 C8.57494037,6.58083601 8.58549028,6.66013845 8.58549028,6.87953574 Z M13.5341803,7.36858432 C13.594847,7.67521954 13.7056482,7.96334657 13.8770977,8.26470356 C13.9588822,8.40743744 14.0221819,8.52903851 14.016916,8.53433662 C13.9905321,8.55812505 13.7214638,8.60042368 13.6977311,8.58719172 C13.6607975,8.56340329 13.5130805,8.24355251 13.4128292,7.96864286 C13.2993947,7.65934856 13.1965286,7.23112867 13.2149954,7.15180801 C13.2229118,7.11480585 13.2809463,6.98264666 13.3416126,6.85840475 L13.449763,6.63371099 L13.4708624,6.8927677 C13.4814127,7.03550159 13.5077966,7.24962064 13.5341803,7.36858432 Z M15.5099555,7.28134639 C15.6128402,7.33422137 15.641857,7.36064883 15.6365729,7.40558831 C15.6313069,7.45316499 15.6444893,7.4637397 15.7157062,7.47167701 C15.8555245,7.48489074 15.8317736,7.54834042 15.6128402,7.73865099 C15.4994058,7.83646545 15.3965215,7.91576788 15.3807057,7.91576788 C15.3200392,7.91576788 15.0905368,7.61220387 15.0061194,7.43774606 C15.2505656,7.28766343 15.4185109,7.23553021 15.5099555,7.28134639 Z M15.3068381,7.98185677 L15.2382545,8.02943346 C15.1459381,8.09288313 14.5392184,8.39158268 14.5260176,8.38100816 C14.5207516,8.37572263 14.5867021,8.13782243 14.6684684,7.85231839 L14.7970414,7.66728405 C14.8471578,7.76243943 15.0694377,7.74394746 15.1538372,7.82852995 L15.3068381,7.98185677 Z M14.2569673,8.00036678 C14.180467,8.23561702 14.1092323,8.44181863 14.0986825,8.45503236 C14.0643996,8.48939714 14.0380157,8.29906651 14.0564827,8.15897184 C14.0881328,7.94485278 14.3308169,7.76244125 14.2569673,8.00036678 Z M11.2233864,7.98185677 C11.1627017,8.16952813 11.102035,8.3360705 11.0914851,8.3466452 C11.0809349,8.35985894 11.0255348,8.3466452 10.967501,8.31757671 C10.8804504,8.27263905 10.8593504,8.24619336 10.830334,8.12988694 C10.7986843,8.00036678 10.7986843,7.98979226 10.8646345,7.87612487 C10.949034,7.73337276 11.0730183,7.63556012 11.2128363,7.60119535 C11.3552694,7.56683239 11.3631863,7.56683239 11.3500034,7.60383802 C11.342087,7.62234639 11.2866855,7.79152597 11.2233864,7.98185677 Z M11.8986895,7.87346761 C11.9303394,8.01092326 11.9962901,8.1853993 12.0859733,8.36251619 L12.2231404,8.63478846 L12.0859733,8.61891364 C12.0094729,8.61098544 11.8274551,8.57661337 11.682371,8.5475467 L11.4133029,8.4920327 L11.4766204,8.28848835 C11.5109032,8.17746198 11.5715878,7.98449215 11.6111545,7.854972 C11.6797382,7.62498196 11.690288,7.6117664 11.7958055,7.64085294 C11.843289,7.65407032 11.861756,7.69371333 11.8986895,7.87346761 Z M12.3787741,7.86289291 L12.6531264,7.9950705 L12.531775,8.13252615 C12.4631919,8.20918937 12.3893242,8.3254958 12.3655912,8.39158268 C12.3418403,8.45767157 12.3154747,8.52112106 12.3049249,8.53167936 C12.2574412,8.58455251 11.9619891,7.89725787 11.9619891,7.73601197 C11.9619891,7.68049778 12.0595896,7.71222353 12.3787741,7.86289291 Z M13.5579132,8.63213102 C13.5447308,8.63213102 13.394362,8.64270208 13.2281781,8.65591945 C13.0619945,8.66649051 12.8034761,8.67179427 12.6557592,8.66384766 L12.386691,8.64799125 L12.4025256,8.56604961 C12.4262586,8.43915043 12.5080429,8.29112008 12.626743,8.16423914 C12.6847765,8.10078946 12.7375262,8.04793454 12.7428101,8.04793454 C12.7507265,8.04793454 12.8351263,8.09551122 12.9327448,8.15630346 C13.2229123,8.33343147 13.6106808,8.62685297 13.5579132,8.63213102 Z" id="boat" stroke="#000000" stroke-width="0.4" fill="#FFCF00" fill-rule="nonzero"></path>
            <g id="water" transform="translate(6.300000, 10.000000)">
                <path d="M13.2686604,0.892388711 L13.2686604,4.11242119 L0.288009875,4.11242119 L0.288009875,0.694660136 C0.300805095,0.749197307 0.499540151,0.816434184 0.640232275,0.870987761 C0.89600907,0.966449365 0.915209725,0.966449365 1.16459776,0.789175715 C1.50351541,0.550522889 1.71453615,0.557346666 2.09821019,0.816434184 C2.67373801,1.20508396 2.82720749,1.21190774 2.99986078,0.870987761 C3.12775785,0.605078288 3.41551334,0.605078288 3.90790047,0.877822474 C4.11892139,0.993716948 4.33634791,1.08235478 4.40028743,1.08235478 C4.45783887,1.08235478 4.59853048,0.973264028 4.70724408,0.843720178 C4.95024301,0.543726454 5.09091795,0.564179374 5.71759092,0.952810925 C6.22277276,1.2732778 6.39542622,1.29373091 6.44658838,1.02781943 C6.51693436,0.693723224 6.57448529,0.639169648 6.86862971,0.639169648 C7.04768878,0.645986134 7.31626062,0.727805653 7.59123807,0.864175103 C7.82783156,0.986911582 8.07083066,1.08235478 8.11558688,1.08235478 C8.16674887,1.08235478 8.22430031,0.986911582 8.2498899,0.870996875 C8.26907371,0.755084173 8.35219721,0.618716728 8.42254319,0.564179374 C8.59519648,0.448264849 8.77423837,0.495996654 9.33697164,0.802814155 C9.89970475,1.10280788 10.0595803,1.07554923 10.0595803,0.673270304 C10.0595803,0.550532003 10.1810713,0.468717952 10.3665195,0.468717952 C10.4240706,0.468717952 10.6606806,0.591458076 10.8972741,0.748260396 C11.4088448,1.07554923 11.549537,1.07554923 11.5942932,0.74146232 C11.6390491,0.400542341 11.850087,0.393718564 12.4000252,0.700554292 C12.8092744,0.939188891 13.2686604,1.03557811 13.2686604,0.892405116 L13.2686604,0.892388711 Z" id="Path" fill="#0091C8" fill-rule="nonzero"></path>
                <path d="M0.336000193,0.811397785 C0.348761387,0.865965943 0.482698975,0.947798222 0.623008483,1.00234633 C0.878138457,1.09783163 0.897272252,1.09783163 1.14601312,0.920514051 C1.48405088,0.681822947 1.69452399,0.688648546 2.0772016,0.947798222 C2.65123587,1.33652091 2.80430674,1.34334633 2.97651209,1.00234633 C3.10407725,0.736372878 3.39108554,0.736372878 3.88219468,1.00918104 C4.09268463,1.12512291 4.30952966,1.21378079 4.37332066,1.21378079 C4.43072239,1.21378079 4.5710319,1.10466434 4.67946309,0.975091506 C4.92183153,0.675008284 5.06214121,0.695465032 5.68718759,1.08420777 C6.19105793,1.40473097 6.36326327,1.42518772 6.41429223,1.15921445 C6.484456,0.825058098 6.54185773,0.770491762 6.83523828,0.770491762 C7.01383256,0.777326475 7.28170706,0.859149458 7.55597116,0.995549895 C7.79195016,1.11829731 8.0343186,1.21378079 8.07897546,1.21378079 C8.12998775,1.21378079 8.18740666,1.11829731 8.21291271,1.00235544 C8.23204668,0.886431805 8.3149548,0.750033191 8.38511789,0.695465032 C8.5573229,0.579541393 8.73591752,0.627265725 9.29718992,0.934174365 C9.85844497,1.23423918 10.0179056,1.20695519 10.0179056,0.804581299 C10.0179056,0.681832061 10.1390813,0.599999964 10.3240479,0.599999964 C10.3814496,0.599999964 10.6174458,0.722749202 10.8534251,0.879608029 C11.3636677,1.20695519 11.5039942,1.20695519 11.5486344,0.872773315 C11.5932913,0.531791543 11.8037642,0.524965943 12.3522749,0.831856355 C12.7604758,1.07054746 13.1431534,1.15239797 13.1431534,1.00917193" id="Path" stroke="#FFFFFF" stroke-width="0.5" stroke-linecap="round" stroke-linejoin="round"></path>
            </g>
        </g>
    </g>
</svg>